<svg width="226" height="226" viewBox="0 0 226 226" fill="none" xmlns="http://www.w3.org/2000/svg">
<g id="&#237;&#151;&#136;&#236;&#158;&#172;&#237;&#155;&#136;">
<g clip-path="url(#clip0_5058_17131)">
<rect width="226" height="226" rx="20" fill="#08BECA"/>
<circle id="Ellipse 11" cx="112.033" cy="172.833" r="126.931" fill="white"/>
<g id="Group 168">
<g id="Group 111">
<g id="Group 109">
<ellipse id="Ellipse 12" cx="148.689" cy="140.789" rx="18.9257" ry="20.6681" fill="#2C2726"/>
<ellipse id="Ellipse 13" cx="77.309" cy="140.789" rx="18.9257" ry="20.6681" fill="#2C2726"/>
<path id="Vector 14 (Stroke)" fill-rule="evenodd" clip-rule="evenodd" d="M93.179 138.93C105.67 125.38 123.968 129.171 132.655 138.964C133.533 139.954 133.442 141.467 132.453 142.345C131.464 143.223 129.95 143.132 129.072 142.143C121.911 134.07 106.926 131.085 96.7007 142.177C95.8043 143.149 94.2891 143.211 93.3166 142.315C92.3441 141.418 92.2825 139.903 93.179 138.93Z" fill="#2C2726"/>
</g>
</g>
</g>
<path id="Subtract" fill-rule="evenodd" clip-rule="evenodd" d="M0 196.555V231.953H226V196.555C197.9 200.693 157.674 203.285 113 203.285C68.3255 203.285 28.0997 200.693 0 196.555Z" fill="#7E00BF"/>
<rect id="Rectangle 2" x="139.834" y="194.848" width="60.6852" height="145.017" rx="30.3426" transform="rotate(-3.74006 139.834 194.848)" fill="#B859E9"/>
<g id="Group 222">
<path id="Vector 20 (Stroke)" fill-rule="evenodd" clip-rule="evenodd" d="M174.817 207.418C175.371 207.58 175.689 208.162 175.526 208.716L173.998 213.932C173.525 215.547 171.23 215.532 170.779 213.91L169.329 208.703C169.174 208.146 169.5 207.569 170.056 207.414C170.613 207.259 171.19 207.585 171.345 208.141L172.402 211.937L173.518 208.128C173.681 207.573 174.262 207.255 174.817 207.418Z" fill="white" fill-opacity="0.6"/>
<path id="Vector 17 (Stroke)" fill-rule="evenodd" clip-rule="evenodd" d="M14.9425 205.953C15.497 206.116 15.8148 206.697 15.6523 207.251L14.124 212.467C13.6505 214.083 11.3563 214.067 10.9047 212.445L9.4551 207.238C9.30013 206.681 9.62578 206.104 10.1825 205.949C10.7391 205.794 11.3161 206.12 11.471 206.677L12.5278 210.473L13.6442 206.663C13.8067 206.108 14.388 205.791 14.9425 205.953Z" fill="white" fill-opacity="0.6"/>
<path id="Vector 21 (Stroke)" fill-rule="evenodd" clip-rule="evenodd" d="M215.831 205.953C216.386 206.116 216.703 206.697 216.541 207.251L215.013 212.467C214.539 214.083 212.245 214.067 211.793 212.445L210.344 207.238C210.189 206.681 210.514 206.104 211.071 205.949C211.628 205.794 212.205 206.12 212.36 206.677L213.416 210.473L214.533 206.663C214.695 206.108 215.277 205.791 215.831 205.953Z" fill="white" fill-opacity="0.6"/>
<path id="Vector 18 (Stroke)" fill-rule="evenodd" clip-rule="evenodd" d="M88.1832 213.277C88.7377 213.44 89.0555 214.021 88.893 214.576L87.3647 219.791C86.8912 221.407 84.597 221.391 84.1455 219.769L82.6958 214.562C82.5408 214.005 82.8665 213.428 83.4232 213.273C83.9799 213.118 84.5568 213.444 84.7118 214.001L85.7685 217.797L86.8849 213.987C87.0474 213.433 87.6287 213.115 88.1832 213.277Z" fill="white" fill-opacity="0.6"/>
<path id="Vector 20 (Stroke)_2" fill-rule="evenodd" clip-rule="evenodd" d="M131.081 218.718C131.636 218.88 131.953 219.462 131.791 220.016L130.263 225.232C129.789 226.847 127.495 226.832 127.043 225.21L125.594 220.002C125.439 219.446 125.764 218.869 126.321 218.714C126.878 218.559 127.455 218.885 127.61 219.441L128.666 223.237L129.783 219.428C129.945 218.873 130.527 218.555 131.081 218.718Z" fill="white" fill-opacity="0.6"/>
<path id="Vector 19 (Stroke)" fill-rule="evenodd" clip-rule="evenodd" d="M47.796 222.275C48.3505 222.438 48.6683 223.019 48.5058 223.574L46.9775 228.789C46.504 230.405 44.2098 230.389 43.7582 228.767L42.3086 223.56C42.1536 223.003 42.4793 222.426 43.036 222.272C43.5927 222.117 44.1696 222.442 44.3245 222.999L45.3813 226.795L46.4977 222.985C46.6602 222.431 47.2415 222.113 47.796 222.275Z" fill="white" fill-opacity="0.6"/>
</g>
<path id="Union" d="M127.357 167.515C119.044 160.534 106.917 160.534 98.6037 167.515L92.7544 172.428C88.2792 176.186 88.5529 183.157 93.3089 186.553L99.9899 191.323C107.761 196.872 118.199 196.872 125.971 191.323L132.652 186.553C137.408 183.157 137.681 176.186 133.206 172.428L127.357 167.515Z" fill="#FF9403"/>
</g>
<rect x="0.5" y="0.5" width="225" height="225" rx="19.5" stroke="#08BECA"/>
</g>
<defs>
<clipPath id="clip0_5058_17131">
<rect width="226" height="226" rx="20" fill="white"/>
</clipPath>
</defs>
</svg>
