<svg width="225" height="226" viewBox="0 0 225 226" fill="none" xmlns="http://www.w3.org/2000/svg">
<g clip-path="url(#clip0_5067_18437)">
<rect width="225" height="226" rx="20" fill="#08BECA"/>
<ellipse cx="111.538" cy="172.833" rx="126.369" ry="126.931" fill="white"/>
<path d="M126.793 166.784C118.517 159.803 106.443 159.803 98.1672 166.784L92.3438 171.697C87.8884 175.455 88.1609 182.426 92.8958 185.822L99.5473 190.592C107.284 196.141 117.676 196.141 125.413 190.592L132.065 185.822C136.8 182.426 137.072 175.455 132.617 171.697L126.793 166.784Z" fill="#FF9403"/>
<ellipse cx="148.031" cy="140.789" rx="18.8419" ry="20.6681" fill="#2C2726"/>
<ellipse cx="76.9669" cy="140.789" rx="18.8419" ry="20.6681" fill="#2C2726"/>
<path fill-rule="evenodd" clip-rule="evenodd" d="M92.767 138.93C105.203 125.38 123.419 129.171 132.069 138.964C132.942 139.954 132.852 141.467 131.867 142.345C130.882 143.223 129.375 143.132 128.501 142.143C121.372 134.07 106.453 131.085 96.2732 142.177C95.3807 143.149 93.8722 143.211 92.904 142.315C91.9358 141.418 91.8745 139.903 92.767 138.93Z" fill="#2C2726"/>
</g>
<rect x="0.5" y="0.5" width="224" height="225" rx="19.5" stroke="#08BECA"/>
<defs>
<clipPath id="clip0_5067_18437">
<rect width="225" height="226" rx="20" fill="white"/>
</clipPath>
</defs>
</svg>
