<svg width="226" height="226" viewBox="0 0 226 226" fill="none" xmlns="http://www.w3.org/2000/svg">
<g id="&#236;&#149;&#136;&#236;&#157;&#128;&#236;&#167;&#132;">
<g clip-path="url(#clip0_5058_17366)">
<rect width="226" height="226" rx="20" fill="#08BECA"/>
<circle id="Ellipse 11" cx="112.033" cy="172.833" r="126.931" fill="white"/>
<g id="Union">
<path fill-rule="evenodd" clip-rule="evenodd" d="M34.4275 148.759C36.7285 164.678 49.6625 173.33 64.8747 173.33H72.5376C87.7499 173.33 100.684 164.678 102.985 148.759L103.643 144.205C109.76 142.466 116.245 142.472 122.36 144.224L123.015 148.759C125.316 164.678 138.25 173.33 153.462 173.33H161.125C176.338 173.33 189.272 164.678 191.572 148.759C191.673 148.066 191.831 147.377 192.133 146.745C193.845 143.156 197.202 140.876 198.983 140.089C199.122 140.027 199.215 139.885 199.215 139.726V130.136C199.215 129.955 199.095 129.798 198.927 129.761L192.332 128.291C189.211 114.013 177.127 105.048 162.308 105.048H152.279C133.618 105.048 119.294 120.488 121.745 139.93C115.996 138.569 110.007 138.564 104.257 139.915C106.698 120.48 92.3774 105.048 73.7205 105.048H63.6918C48.8727 105.048 36.7891 114.013 33.6684 128.291L27.0729 129.761C26.9052 129.798 26.7852 129.955 26.7852 130.136V139.726C26.7852 139.885 26.8779 140.027 27.0171 140.089C28.7982 140.876 32.1549 143.156 33.8674 146.745C34.1692 147.377 34.3273 148.066 34.4275 148.759ZM40.9945 147.695C42.7992 160.181 52.9435 166.297 64.8747 166.297H72.5376C84.4688 166.297 94.6131 160.181 96.4178 147.695L97.6007 139.511C99.839 124.026 88.5188 112.081 73.7205 112.081H63.6918C48.8935 112.081 37.5733 124.026 39.8116 139.511L40.9945 147.695ZM161.125 166.297C173.056 166.297 183.201 160.181 185.005 147.695L186.188 139.511C188.427 124.026 177.106 112.081 162.308 112.081H152.279C137.481 112.081 126.161 124.026 128.399 139.511L129.582 147.695C131.387 160.181 141.531 166.297 153.462 166.297H161.125Z" fill="#A17A5E"/>
<path d="M34.4275 148.759L36.9018 148.402L34.4275 148.759ZM102.985 148.759L100.511 148.402V148.402L102.985 148.759ZM103.643 144.205L102.959 141.801L101.401 142.244L101.169 143.848L103.643 144.205ZM122.36 144.224L124.834 143.866L124.603 142.266L123.048 141.821L122.36 144.224ZM123.015 148.759L125.489 148.402L123.015 148.759ZM191.572 148.759L194.047 149.117V149.117L191.572 148.759ZM192.133 146.745L189.876 145.668V145.668L192.133 146.745ZM198.983 140.089L197.972 137.802L197.972 137.802L198.983 140.089ZM198.927 129.761L198.383 132.201V132.201L198.927 129.761ZM192.332 128.291L189.889 128.824L190.23 130.384L191.788 130.731L192.332 128.291ZM121.745 139.93L121.169 142.363L124.676 143.193L124.225 139.617L121.745 139.93ZM104.257 139.915L101.776 139.603L101.328 143.171L104.829 142.349L104.257 139.915ZM33.6684 128.291L34.2122 130.731L35.77 130.384L36.1107 128.824L33.6684 128.291ZM27.0729 129.761L27.6167 132.201L27.6167 132.201L27.0729 129.761ZM27.0171 140.089L26.0062 142.375L26.0062 142.375L27.0171 140.089ZM33.8674 146.745L31.6111 147.821H31.6111L33.8674 146.745ZM40.9945 147.695L43.4688 147.338L40.9945 147.695ZM96.4178 147.695L93.9435 147.338V147.338L96.4178 147.695ZM97.6007 139.511L100.075 139.869V139.869L97.6007 139.511ZM39.8116 139.511L37.3373 139.869L39.8116 139.511ZM185.005 147.695L182.531 147.338V147.338L185.005 147.695ZM186.188 139.511L188.663 139.869V139.869L186.188 139.511ZM128.399 139.511L125.925 139.869V139.869L128.399 139.511ZM129.582 147.695L132.057 147.338V147.338L129.582 147.695ZM64.8747 170.83C50.6312 170.83 38.9884 162.838 36.9018 148.402L31.9532 149.117C34.4685 166.519 48.6937 175.83 64.8747 175.83V170.83ZM72.5376 170.83H64.8747V175.83H72.5376V170.83ZM100.511 148.402C98.4239 162.838 86.7811 170.83 72.5376 170.83V175.83C88.7186 175.83 102.944 166.519 105.459 149.117L100.511 148.402ZM101.169 143.848L100.511 148.402L105.459 149.117L106.117 144.563L101.169 143.848ZM123.048 141.821C116.485 139.94 109.525 139.934 102.959 141.801L104.327 146.61C109.995 144.998 116.005 145.004 121.671 146.627L123.048 141.821ZM125.489 148.402L124.834 143.866L119.885 144.582L120.541 149.117L125.489 148.402ZM153.462 170.83C139.219 170.83 127.576 162.838 125.489 148.402L120.541 149.117C123.056 166.519 137.281 175.83 153.462 175.83V170.83ZM161.125 170.83H153.462V175.83H161.125V170.83ZM189.098 148.402C187.012 162.838 175.369 170.83 161.125 170.83V175.83C177.306 175.83 191.532 166.519 194.047 149.117L189.098 148.402ZM189.876 145.668C189.421 146.621 189.216 147.588 189.098 148.402L194.047 149.117C194.13 148.544 194.24 148.133 194.389 147.821L189.876 145.668ZM197.972 137.802C195.825 138.751 191.92 141.385 189.876 145.668L194.389 147.821C195.77 144.926 198.579 143.001 199.994 142.375L197.972 137.802ZM196.715 139.726C196.715 138.918 197.185 138.15 197.972 137.802L199.994 142.375C201.059 141.904 201.715 140.852 201.715 139.726H196.715ZM196.715 130.136V139.726H201.715V130.136H196.715ZM198.383 132.201C197.318 131.963 196.715 131.031 196.715 130.136H201.715C201.715 128.878 200.871 127.633 199.471 127.321L198.383 132.201ZM191.788 130.731L198.383 132.201L199.471 127.321L192.875 125.851L191.788 130.731ZM162.308 107.548C176.06 107.548 187.042 115.797 189.889 128.824L194.774 127.757C191.38 112.229 178.194 102.548 162.308 102.548V107.548ZM152.279 107.548H162.308V102.548H152.279V107.548ZM124.225 139.617C121.966 121.695 135.095 107.548 152.279 107.548V102.548C132.14 102.548 116.622 119.281 119.265 140.243L124.225 139.617ZM104.829 142.349C110.202 141.086 115.798 141.091 121.169 142.363L122.321 137.497C116.195 136.047 109.813 136.042 103.685 137.481L104.829 142.349ZM73.7205 107.548C90.9002 107.548 104.027 121.688 101.776 139.603L106.737 140.226C109.37 119.272 93.8547 102.548 73.7205 102.548V107.548ZM63.6918 107.548H73.7205V102.548H63.6918V107.548ZM36.1107 128.824C38.9582 115.797 49.9397 107.548 63.6918 107.548V102.548C47.8056 102.548 34.62 112.229 31.2261 127.757L36.1107 128.824ZM27.6167 132.201L34.2122 130.731L33.1246 125.851L26.529 127.321L27.6167 132.201ZM29.2852 130.136C29.2852 131.031 28.6819 131.963 27.6167 132.201L26.5291 127.32C25.1285 127.633 24.2852 128.878 24.2852 130.136H29.2852ZM29.2852 139.726V130.136H24.2852V139.726H29.2852ZM28.0279 137.802C28.8149 138.15 29.2852 138.918 29.2852 139.726H24.2852C24.2852 140.852 24.941 141.904 26.0062 142.375L28.0279 137.802ZM36.1237 145.668C34.0802 141.385 30.1753 138.751 28.0279 137.802L26.0062 142.375C27.4212 143.001 30.2296 144.926 31.6111 147.821L36.1237 145.668ZM36.9018 148.402C36.7841 147.588 36.5785 146.621 36.1237 145.668L31.6111 147.821C31.7598 148.133 31.8704 148.544 31.9532 149.117L36.9018 148.402ZM64.8747 163.797C59.3171 163.797 54.3448 162.372 50.6066 159.656C46.9128 156.972 44.277 152.929 43.4688 147.338L38.5203 148.053C39.5167 154.947 42.8554 160.205 47.6678 163.701C52.4357 167.165 58.5011 168.797 64.8747 168.797V163.797ZM72.5376 163.797H64.8747V168.797H72.5376V163.797ZM93.9435 147.338C93.1353 152.929 90.4995 156.972 86.8057 159.656C83.0676 162.372 78.0952 163.797 72.5376 163.797V168.797C78.9112 168.797 84.9766 167.165 89.7445 163.701C94.5569 160.205 97.8956 154.947 98.8921 148.053L93.9435 147.338ZM95.1264 139.154L93.9435 147.338L98.8921 148.053L100.075 139.869L95.1264 139.154ZM73.7205 114.581C87.0771 114.581 97.1354 125.255 95.1264 139.154L100.075 139.869C102.543 122.796 89.9605 109.581 73.7205 109.581V114.581ZM63.6918 114.581H73.7205V109.581H63.6918V114.581ZM42.2859 139.154C40.2769 125.255 50.3352 114.581 63.6918 114.581V109.581C47.4518 109.581 34.8697 122.796 37.3373 139.869L42.2859 139.154ZM43.4688 147.338L42.2859 139.154L37.3373 139.869L38.5203 148.053L43.4688 147.338ZM182.531 147.338C181.723 152.929 179.087 156.972 175.393 159.656C171.655 162.372 166.683 163.797 161.125 163.797V168.797C167.499 168.797 173.564 167.165 178.332 163.701C183.145 160.205 186.483 154.947 187.48 148.053L182.531 147.338ZM183.714 139.154L182.531 147.338L187.48 148.053L188.663 139.869L183.714 139.154ZM162.308 114.581C175.665 114.581 185.723 125.255 183.714 139.154L188.663 139.869C191.13 122.796 178.548 109.581 162.308 109.581V114.581ZM152.279 114.581H162.308V109.581H152.279V114.581ZM130.874 139.154C128.865 125.255 138.923 114.581 152.279 114.581V109.581C136.04 109.581 123.457 122.796 125.925 139.869L130.874 139.154ZM132.057 147.338L130.874 139.154L125.925 139.869L127.108 148.053L132.057 147.338ZM153.462 163.797C147.905 163.797 142.932 162.372 139.194 159.656C135.501 156.972 132.865 152.929 132.057 147.338L127.108 148.053C128.104 154.947 131.443 160.205 136.255 163.701C141.023 167.165 147.089 168.797 153.462 168.797V163.797ZM161.125 163.797H153.462V168.797H161.125V163.797Z" fill="#A17A5E"/>
</g>
<g id="Group 427322264">
<path id="Vector 27 (Stroke)" fill-rule="evenodd" clip-rule="evenodd" d="M84.5635 140.858C76.0348 134.459 66.1895 134.38 58.6957 140.776C57.8167 141.526 56.4958 141.422 55.7456 140.543C54.9953 139.664 55.0997 138.343 55.9788 137.592C65.1574 129.759 77.1946 130.098 87.0751 137.51C87.9996 138.204 88.1867 139.516 87.4932 140.44C86.7996 141.364 85.4879 141.552 84.5635 140.858Z" fill="#2C2726"/>
<path id="Vector 28 (Stroke)" fill-rule="evenodd" clip-rule="evenodd" d="M167.453 140.858C158.924 134.459 149.079 134.38 141.585 140.776C140.706 141.526 139.385 141.422 138.635 140.543C137.885 139.664 137.989 138.343 138.868 137.592C148.047 129.759 160.084 130.098 169.965 137.51C170.889 138.204 171.076 139.516 170.383 140.44C169.689 141.364 168.378 141.552 167.453 140.858Z" fill="#2C2726"/>
</g>
<path id="Union_2" d="M127.357 167.515C119.044 160.534 106.917 160.534 98.6037 167.515L92.7544 172.428C88.2792 176.186 88.5529 183.157 93.3089 186.553L99.9899 191.323C107.761 196.872 118.199 196.872 125.971 191.323L132.652 186.553C137.408 183.157 137.681 176.186 133.206 172.428L127.357 167.515Z" fill="#FF9403"/>
</g>
<rect x="0.5" y="0.5" width="225" height="225" rx="19.5" stroke="#08BECA"/>
</g>
<defs>
<clipPath id="clip0_5058_17366">
<rect width="226" height="226" rx="20" fill="white"/>
</clipPath>
</defs>
</svg>
