<svg width="344" height="290" viewBox="0 0 344 290" fill="none" xmlns="http://www.w3.org/2000/svg">
<g filter="url(#filter0_d_5056_16708)">
<ellipse cx="33.0838" cy="26.5129" rx="33.0838" ry="26.5129" transform="matrix(-0.916963 0.398973 0.398973 0.916963 125.673 124.677)" fill="#FFE070"/>
<ellipse cx="33.0838" cy="26.5129" rx="33.0838" ry="26.5129" transform="matrix(-0.916963 0.398973 0.398973 0.916963 125.673 124.677)" fill="#FFE070"/>
<ellipse cx="238.085" cy="162.188" rx="33.0838" ry="26.5129" transform="rotate(23.514 238.085 162.188)" fill="#FFE070"/>
<ellipse cx="238.085" cy="162.188" rx="33.0838" ry="26.5129" transform="rotate(23.514 238.085 162.188)" fill="#FFE070"/>
<circle cx="172.013" cy="151.814" r="77.8144" fill="#FFE070"/>
<ellipse cx="172.06" cy="154.883" rx="12.4176" ry="8.72591" fill="#FF8A00"/>
<circle cx="150.749" cy="136.256" r="6.88005" fill="#2C2726"/>
<circle cx="193.372" cy="136.256" r="6.88005" fill="#2C2726"/>
<path d="M142.144 239.168C140.465 239.168 139.047 237.923 138.83 236.259L137.445 225.642C137.319 224.674 137.423 223.691 137.747 222.771L138.233 221.395C138.818 219.736 140.386 218.628 142.144 218.628C143.903 218.628 145.47 219.736 146.055 221.395L146.541 222.771C146.866 223.691 146.969 224.674 146.843 225.642L145.458 236.259C145.241 237.923 143.823 239.168 142.144 239.168Z" fill="#E28200"/>
<path d="M150.781 234.767C149.327 235.606 147.476 235.237 146.456 233.904L139.948 225.402C139.355 224.627 138.953 223.724 138.774 222.765L138.507 221.33C138.185 219.601 138.988 217.857 140.51 216.978C142.033 216.099 143.945 216.276 145.281 217.419L146.39 218.368C147.131 219.002 147.712 219.802 148.087 220.703L152.196 230.59C152.84 232.14 152.235 233.928 150.781 234.767Z" fill="#E28200"/>
<path d="M133.337 234.767C134.791 235.606 136.642 235.237 137.662 233.904L144.17 225.402C144.763 224.627 145.165 223.724 145.344 222.765L145.611 221.33C145.934 219.601 145.131 217.857 143.608 216.978C142.085 216.099 140.173 216.276 138.837 217.419L137.728 218.368C136.987 219.002 136.406 219.802 136.031 220.703L131.922 230.59C131.278 232.14 131.884 233.928 133.337 234.767Z" fill="#E28200"/>
<path d="M201.81 239.168C200.131 239.168 198.713 237.923 198.496 236.259L197.111 225.642C196.985 224.674 197.089 223.691 197.413 222.771L197.899 221.395C198.484 219.736 200.052 218.628 201.81 218.628C203.569 218.628 205.136 219.736 205.721 221.395L206.207 222.771C206.532 223.691 206.635 224.674 206.509 225.642L205.124 236.259C204.907 237.923 203.489 239.168 201.81 239.168Z" fill="#E28200"/>
<path d="M210.447 234.767C208.994 235.606 207.143 235.237 206.123 233.904L199.615 225.402C199.022 224.627 198.62 223.724 198.441 222.765L198.173 221.33C197.851 219.601 198.654 217.857 200.177 216.978C201.7 216.099 203.612 216.276 204.948 217.419L206.057 218.368C206.798 219.002 207.379 219.802 207.753 220.703L211.862 230.59C212.507 232.14 211.901 233.928 210.447 234.767Z" fill="#E28200"/>
<path d="M193.004 234.767C194.458 235.606 196.308 235.237 197.329 233.904L203.837 225.402C204.429 224.627 204.831 223.724 205.01 222.765L205.278 221.33C205.6 219.601 204.797 217.857 203.274 216.978C201.751 216.099 199.84 216.276 198.504 217.419L197.395 218.368C196.654 219.002 196.072 219.802 195.698 220.703L191.589 230.59C190.944 232.14 191.55 233.928 193.004 234.767Z" fill="#E28200"/>
</g>
<g opacity="0.6" filter="url(#filter1_f_5056_16708)">
<ellipse cx="172.06" cy="255.902" rx="53.6979" ry="10.0684" fill="#AEAEAE"/>
</g>
<defs>
<filter id="filter0_d_5056_16708" x="43.7778" y="64" width="256.444" height="225.168" filterUnits="userSpaceOnUse" color-interpolation-filters="sRGB">
<feFlood flood-opacity="0" result="BackgroundImageFix"/>
<feColorMatrix in="SourceAlpha" type="matrix" values="0 0 0 0 0 0 0 0 0 0 0 0 0 0 0 0 0 0 127 0" result="hardAlpha"/>
<feOffset dy="20"/>
<feGaussianBlur stdDeviation="15"/>
<feComposite in2="hardAlpha" operator="out"/>
<feColorMatrix type="matrix" values="0 0 0 0 0 0 0 0 0 0 0 0 0 0 0 0 0 0 0.16 0"/>
<feBlend mode="normal" in2="BackgroundImageFix" result="effect1_dropShadow_5056_16708"/>
<feBlend mode="normal" in="SourceGraphic" in2="effect1_dropShadow_5056_16708" result="shape"/>
</filter>
<filter id="filter1_f_5056_16708" x="98.3623" y="225.833" width="147.396" height="60.1367" filterUnits="userSpaceOnUse" color-interpolation-filters="sRGB">
<feFlood flood-opacity="0" result="BackgroundImageFix"/>
<feBlend mode="normal" in="SourceGraphic" in2="BackgroundImageFix" result="shape"/>
<feGaussianBlur stdDeviation="10" result="effect1_foregroundBlur_5056_16708"/>
</filter>
</defs>
</svg>
