<svg width="209.58" height="174" viewBox="0 0 254 216" fill="none" xmlns="http://www.w3.org/2000/svg">
<g filter="url(#filter0_d_5433_15223)">
<path d="M126.232 128.855C123.328 128.855 120.82 130.885 120.213 133.724L116.141 152.784C114.768 159.206 119.665 165.259 126.232 165.259C132.799 165.259 137.695 159.206 136.323 152.784L132.25 133.724C131.644 130.885 129.135 128.855 126.232 128.855Z" fill="#2C2726"/>
<path d="M118.642 125.668C116.01 124.441 112.879 125.22 111.13 127.537L99.3835 143.09C95.4258 148.33 97.3052 155.885 103.257 158.661C109.209 161.436 116.204 158.019 117.675 151.619L122.039 132.624C122.689 129.794 121.273 126.895 118.642 125.668Z" fill="#2C2726"/>
<path d="M133.599 125.668C136.23 124.441 139.361 125.22 141.111 127.537L152.857 143.09C156.815 148.33 154.936 155.885 148.984 158.661C143.032 161.436 136.036 158.019 134.566 151.619L130.202 132.624C129.552 129.794 130.968 126.895 133.599 125.668Z" fill="#2C2726"/>
<ellipse cx="32.0146" cy="25.656" rx="32.0146" ry="25.656" transform="matrix(-0.916963 0.398973 0.398973 0.916963 80.7124 51.1865)" fill="#2C2726"/>
<ellipse cx="32.0146" cy="25.656" rx="32.0146" ry="25.656" transform="matrix(-0.916963 0.398973 0.398973 0.916963 80.7124 51.1865)" fill="#2C2726"/>
<ellipse cx="191.99" cy="87.4851" rx="32.0146" ry="25.656" transform="rotate(23.514 191.99 87.4851)" fill="#2C2726"/>
<ellipse cx="191.99" cy="87.4851" rx="32.0146" ry="25.656" transform="rotate(23.514 191.99 87.4851)" fill="#2C2726"/>
<circle cx="126.33" cy="75.6895" r="65.6895" fill="white"/>
<path d="M97.8438 149.433C96.2419 149.433 94.8886 148.244 94.6814 146.656L93.3599 136.524C93.2395 135.601 93.3382 134.663 93.648 133.785L94.1116 132.472C94.6701 130.889 96.1658 129.831 97.8438 129.831C99.5219 129.831 101.018 130.889 101.576 132.472L102.04 133.785C102.349 134.663 102.448 135.601 102.328 136.524L101.006 146.656C100.799 148.244 99.4457 149.433 97.8438 149.433Z" fill="#E28200"/>
<path d="M106.086 145.232C104.699 146.033 102.933 145.681 101.959 144.409L95.7488 136.295C95.1831 135.556 94.7994 134.694 94.6288 133.779L94.3735 132.41C94.066 130.76 94.8321 129.096 96.2854 128.257C97.7386 127.418 99.563 127.586 100.838 128.678L101.896 129.583C102.603 130.189 103.158 130.952 103.515 131.811L107.437 141.246C108.051 142.726 107.474 144.431 106.086 145.232Z" fill="#E28200"/>
<path d="M89.4401 145.232C90.8274 146.033 92.5936 145.681 93.5672 144.409L99.7775 136.295C100.343 135.556 100.727 134.694 100.898 133.779L101.153 132.41C101.46 130.76 100.694 129.096 99.241 128.257C97.7877 127.418 95.9634 127.586 94.6885 128.678L93.6302 129.583C92.923 130.189 92.3683 130.952 92.0111 131.811L88.0897 141.246C87.475 142.726 88.0528 144.431 89.4401 145.232Z" fill="#E28200"/>
<path d="M154.782 149.433C153.18 149.433 151.827 148.244 151.62 146.656L150.298 136.524C150.178 135.601 150.277 134.663 150.586 133.785L151.05 132.472C151.609 130.889 153.104 129.831 154.782 129.831C156.46 129.831 157.956 130.889 158.515 132.472L158.978 133.785C159.288 134.663 159.387 135.601 159.266 136.524L157.945 146.656C157.738 148.244 156.384 149.433 154.782 149.433Z" fill="#E28200"/>
<path d="M163.025 145.232C161.637 146.033 159.871 145.681 158.898 144.409L152.687 136.295C152.122 135.556 151.738 134.694 151.567 133.779L151.312 132.41C151.004 130.76 151.771 129.096 153.224 128.257C154.677 127.418 156.501 127.586 157.776 128.678L158.835 129.583C159.542 130.189 160.096 130.952 160.454 131.811L164.375 141.246C164.99 142.726 164.412 144.431 163.025 145.232Z" fill="#E28200"/>
<path d="M146.379 145.232C147.766 146.033 149.533 145.681 150.506 144.409L156.717 136.295C157.282 135.556 157.666 134.694 157.837 133.779L158.092 132.41C158.399 130.76 157.633 129.096 156.18 128.257C154.727 127.418 152.902 127.586 151.627 128.678L150.569 129.583C149.862 130.189 149.307 130.952 148.95 131.811L145.029 141.246C144.414 142.726 144.992 144.431 146.379 145.232Z" fill="#E28200"/>
</g>
<ellipse cx="144.86" cy="59.1059" rx="9.79444" ry="10.6962" fill="#2C2726"/>
<ellipse cx="107.919" cy="59.1059" rx="9.79444" ry="10.6962" fill="#2C2726"/>
<path fill-rule="evenodd" clip-rule="evenodd" d="M116.322 58.3187C122.665 51.4385 131.955 53.357 136.369 58.3326C136.729 58.738 136.692 59.3582 136.286 59.7178C135.881 60.0774 135.261 60.0403 134.901 59.6349C131.113 55.3644 123.179 53.7759 117.765 59.6488C117.398 60.0473 116.777 60.0725 116.379 59.7052C115.98 59.3379 115.955 58.7172 116.322 58.3187Z" fill="#2C2726"/>
<path d="M135.669 74.512C130.282 69.9885 122.425 69.9885 117.038 74.512C114.139 76.9471 114.316 81.4636 117.398 83.6639L117.624 83.8254C122.846 87.5544 129.861 87.5544 135.083 83.8254L135.309 83.6639C138.391 81.4636 138.568 76.9471 135.669 74.512Z" fill="#FF9403"/>
<g opacity="0.6" filter="url(#filter1_f_5433_15223)">
<ellipse cx="114.817" cy="177.058" rx="37.0213" ry="6.94149" fill="#AEAEAE"/>
</g>
<defs>
<filter id="filter0_d_5433_15223" x="0.494141" y="0" width="252.594" height="215.259" filterUnits="userSpaceOnUse" color-interpolation-filters="sRGB">
<feFlood flood-opacity="0" result="BackgroundImageFix"/>
<feColorMatrix in="SourceAlpha" type="matrix" values="0 0 0 0 0 0 0 0 0 0 0 0 0 0 0 0 0 0 127 0" result="hardAlpha"/>
<feOffset dy="20"/>
<feGaussianBlur stdDeviation="15"/>
<feComposite in2="hardAlpha" operator="out"/>
<feColorMatrix type="matrix" values="0 0 0 0 0 0 0 0 0 0 0 0 0 0 0 0 0 0 0.16 0"/>
<feBlend mode="normal" in2="BackgroundImageFix" result="effect1_dropShadow_5433_15223"/>
<feBlend mode="normal" in="SourceGraphic" in2="effect1_dropShadow_5433_15223" result="shape"/>
</filter>
<filter id="filter1_f_5433_15223" x="57.7954" y="150.117" width="114.042" height="53.8828" filterUnits="userSpaceOnUse" color-interpolation-filters="sRGB">
<feFlood flood-opacity="0" result="BackgroundImageFix"/>
<feBlend mode="normal" in="SourceGraphic" in2="BackgroundImageFix" result="shape"/>
<feGaussianBlur stdDeviation="10" result="effect1_foregroundBlur_5433_15223"/>
</filter>
</defs>
</svg>
