<svg width="356" height="298" viewBox="0 0 356 298" fill="none" xmlns="http://www.w3.org/2000/svg">
<g filter="url(#filter0_d_5056_16709)">
<path d="M177.343 191.699C172.904 191.699 169.07 194.801 168.142 199.141L161.916 228.279C159.819 238.096 167.304 247.35 177.343 247.35C187.382 247.35 194.867 238.096 192.769 228.279L186.544 199.141C185.616 194.801 181.781 191.699 177.343 191.699Z" fill="#2C2726"/>
<path d="M165.739 186.826C161.717 184.95 156.93 186.141 154.255 189.682L136.299 213.459C130.249 221.47 133.122 233.02 142.22 237.263C151.319 241.505 162.013 236.282 164.261 226.498L170.933 197.459C171.926 193.133 169.762 188.701 165.739 186.826Z" fill="#2C2726"/>
<path d="M188.606 186.826C192.629 184.95 197.415 186.141 200.09 189.682L218.047 213.459C224.097 221.47 221.224 233.02 212.125 237.263C203.027 241.505 192.332 236.282 190.084 226.498L183.413 197.459C182.419 193.133 184.584 188.701 188.606 186.826Z" fill="#2C2726"/>
<ellipse cx="48.9419" cy="39.2213" rx="48.9419" ry="39.2213" transform="matrix(-0.916963 0.398973 0.398973 0.916963 107.756 72.9634)" fill="#2C2726"/>
<ellipse cx="48.9419" cy="39.2213" rx="48.9419" ry="39.2213" transform="matrix(-0.916963 0.398973 0.398973 0.916963 107.756 72.9634)" fill="#2C2726"/>
<ellipse cx="277.871" cy="128.454" rx="48.9419" ry="39.2213" transform="rotate(23.514 277.871 128.454)" fill="#2C2726"/>
<ellipse cx="277.871" cy="128.454" rx="48.9419" ry="39.2213" transform="rotate(23.514 277.871 128.454)" fill="#2C2726"/>
<ellipse cx="177.494" cy="110.422" rx="100.422" ry="100.422" fill="white"/>
<path d="M133.946 223.156C131.497 223.156 129.428 221.339 129.111 218.911L127.091 203.422C126.907 202.011 127.058 200.577 127.531 199.235L128.24 197.227C129.094 194.808 131.38 193.19 133.946 193.19C136.511 193.19 138.798 194.808 139.651 197.227L140.36 199.235C140.834 200.577 140.985 202.011 140.801 203.422L138.78 218.911C138.464 221.339 136.395 223.156 133.946 223.156Z" fill="#E28200"/>
<path d="M146.546 216.734C144.425 217.959 141.725 217.42 140.237 215.475L130.743 203.072C129.878 201.942 129.291 200.624 129.031 199.225L128.64 197.132C128.17 194.61 129.341 192.066 131.563 190.783C133.785 189.501 136.574 189.758 138.523 191.426L140.141 192.811C141.222 193.736 142.07 194.903 142.616 196.217L148.61 210.641C149.55 212.902 148.667 215.51 146.546 216.734Z" fill="#E28200"/>
<path d="M121.098 216.734C123.219 217.959 125.919 217.42 127.408 215.475L136.902 203.072C137.767 201.942 138.353 200.624 138.614 199.225L139.004 197.132C139.474 194.61 138.303 192.066 136.081 190.783C133.86 189.501 131.071 189.758 129.122 191.426L127.504 192.811C126.423 193.736 125.575 194.903 125.029 196.217L119.034 210.641C118.094 212.902 118.978 215.51 121.098 216.734Z" fill="#E28200"/>
<path d="M220.99 223.156C218.541 223.156 216.472 221.339 216.155 218.911L214.135 203.422C213.951 202.011 214.102 200.577 214.575 199.235L215.284 197.227C216.138 194.808 218.424 193.19 220.99 193.19C223.555 193.19 225.841 194.808 226.695 197.227L227.404 199.235C227.878 200.577 228.029 202.011 227.844 203.422L225.824 218.911C225.507 221.339 223.439 223.156 220.99 223.156Z" fill="#E28200"/>
<path d="M233.59 216.734C231.469 217.959 228.769 217.42 227.281 215.475L217.787 203.072C216.922 201.942 216.335 200.624 216.075 199.225L215.684 197.132C215.214 194.61 216.385 192.066 218.607 190.783C220.829 189.501 223.618 189.758 225.567 191.426L227.185 192.811C228.266 193.736 229.114 194.903 229.66 196.217L235.654 210.641C236.594 212.902 235.711 215.51 233.59 216.734Z" fill="#E28200"/>
<path d="M208.143 216.734C210.264 217.959 212.964 217.42 214.452 215.475L223.946 203.072C224.811 201.942 225.398 200.624 225.658 199.225L226.049 197.132C226.519 194.61 225.347 192.066 223.126 190.783C220.904 189.501 218.115 189.758 216.166 191.426L214.548 192.811C213.467 193.736 212.619 194.903 212.073 196.217L206.079 210.641C205.139 212.902 206.022 215.51 208.143 216.734Z" fill="#E28200"/>
</g>
<ellipse cx="205.821" cy="85.0699" rx="14.9731" ry="16.3516" fill="#2C2726"/>
<ellipse cx="149.348" cy="85.0699" rx="14.9731" ry="16.3516" fill="#2C2726"/>
<path fill-rule="evenodd" clip-rule="evenodd" d="M162.194 83.8668C171.89 73.3487 186.093 76.2816 192.841 83.888C193.391 84.5077 193.334 85.4558 192.714 86.0055C192.094 86.5553 191.146 86.4986 190.597 85.8788C184.805 79.3504 172.677 76.9219 164.4 85.9001C163.839 86.5092 162.89 86.5478 162.281 85.9863C161.672 85.4248 161.633 84.4759 162.194 83.8668Z" fill="#2C2726"/>
<path d="M191.77 108.622C183.535 101.707 171.523 101.707 163.289 108.622C158.856 112.345 159.127 119.249 163.838 122.613L164.184 122.86C172.167 128.56 182.891 128.56 190.875 122.86L191.22 122.613C195.931 119.249 196.202 112.345 191.77 108.622Z" fill="#FF9403"/>
<g opacity="0.6" filter="url(#filter1_f_5056_16709)">
<ellipse cx="178.237" cy="265.388" rx="56.5958" ry="10.6117" fill="#AEAEAE"/>
</g>
<defs>
<filter id="filter0_d_5056_16709" x="0.985352" y="0" width="354.426" height="297.35" filterUnits="userSpaceOnUse" color-interpolation-filters="sRGB">
<feFlood flood-opacity="0" result="BackgroundImageFix"/>
<feColorMatrix in="SourceAlpha" type="matrix" values="0 0 0 0 0 0 0 0 0 0 0 0 0 0 0 0 0 0 127 0" result="hardAlpha"/>
<feOffset dy="20"/>
<feGaussianBlur stdDeviation="15"/>
<feComposite in2="hardAlpha" operator="out"/>
<feColorMatrix type="matrix" values="0 0 0 0 0 0 0 0 0 0 0 0 0 0 0 0 0 0 0.16 0"/>
<feBlend mode="normal" in2="BackgroundImageFix" result="effect1_dropShadow_5056_16709"/>
<feBlend mode="normal" in="SourceGraphic" in2="effect1_dropShadow_5056_16709" result="shape"/>
</filter>
<filter id="filter1_f_5056_16709" x="101.641" y="234.776" width="153.191" height="61.2236" filterUnits="userSpaceOnUse" color-interpolation-filters="sRGB">
<feFlood flood-opacity="0" result="BackgroundImageFix"/>
<feBlend mode="normal" in="SourceGraphic" in2="BackgroundImageFix" result="shape"/>
<feGaussianBlur stdDeviation="10" result="effect1_foregroundBlur_5056_16709"/>
</filter>
</defs>
</svg>
