<svg width="24" height="24" viewBox="0 0 24 24" fill="none" xmlns="http://www.w3.org/2000/svg">
<g id="Wine bar">
<path id="Vector" d="M9 21C8.71667 21 8.47933 20.904 8.288 20.712C8.096 20.5207 8 20.2833 8 20C8 19.7167 8.096 19.4793 8.288 19.288C8.47933 19.096 8.71667 19 9 19H11V14.9C9.56667 14.6667 8.375 14 7.425 12.9C6.475 11.8 6 10.5 6 9V4C6 3.71667 6.09567 3.479 6.287 3.287C6.479 3.09567 6.71667 3 7 3H17C17.2833 3 17.5207 3.09567 17.712 3.287C17.904 3.479 18 3.71667 18 4V9C18 10.5 17.525 11.8 16.575 12.9C15.625 14 14.4333 14.6667 13 14.9V19H15C15.2833 19 15.521 19.096 15.713 19.288C15.9043 19.4793 16 19.7167 16 20C16 20.2833 15.9043 20.5207 15.713 20.712C15.521 20.904 15.2833 21 15 21H9ZM12 13C12.9333 13 13.75 12.7167 14.45 12.15C15.15 11.5833 15.6167 10.8667 15.85 10H8.15C8.38333 10.8667 8.85 11.5833 9.55 12.15C10.25 12.7167 11.0667 13 12 13ZM8 8H16V5H8V8Z" fill="#646464"/>
</g>
</svg>
