<svg width="225" height="226" viewBox="0 0 225 226" fill="none" xmlns="http://www.w3.org/2000/svg">
<g id="&#234;&#185;&#128;&#237;&#156;&#152;&#236;&#160;&#149;">
<g clip-path="url(#clip0_5058_17396)">
<rect width="225" height="226" rx="20" fill="#08BECA"/>
<ellipse id="Ellipse 11" cx="111.538" cy="172.833" rx="126.369" ry="126.931" fill="white"/>
<g id="Group 427322244">
<ellipse id="Ellipse 36" cx="54.2707" cy="53.0474" rx="20.7292" ry="20.8213" fill="white"/>
<ellipse id="Ellipse 37" cx="170.729" cy="53.0474" rx="20.7292" ry="20.8213" fill="white"/>
</g>
<g id="Group 427322245">
<g id="Group 427322251">
<ellipse id="Ellipse 38" cx="166.979" cy="172.744" rx="20.5208" ry="15.1713" fill="#FFE6E6"/>
<g id="Group 427322250">
<path id="Vector 23 (Stroke)" fill-rule="evenodd" clip-rule="evenodd" d="M161.04 165.171C162.154 165.459 162.825 166.6 162.539 167.719L159.726 178.705C159.439 179.825 158.304 180.499 157.19 180.211C156.075 179.923 155.404 178.782 155.691 177.663L158.503 166.677C158.79 165.558 159.925 164.884 161.04 165.171Z" fill="#FFAD9B"/>
<path id="Vector 24 (Stroke)" fill-rule="evenodd" clip-rule="evenodd" d="M168.956 165.171C170.071 165.459 170.742 166.6 170.455 167.719L167.643 178.705C167.356 179.825 166.22 180.499 165.106 180.211C163.992 179.923 163.321 178.782 163.607 177.663L166.42 166.677C166.706 165.558 167.842 164.884 168.956 165.171Z" fill="#FFAD9B"/>
<path id="Vector 25 (Stroke)" fill-rule="evenodd" clip-rule="evenodd" d="M176.873 165.171C177.988 165.459 178.659 166.6 178.372 167.719L175.56 178.705C175.273 179.825 174.137 180.499 173.023 180.211C171.909 179.923 171.238 178.782 171.524 177.663L174.337 166.677C174.623 165.558 175.759 164.884 176.873 165.171Z" fill="#FFAD9B"/>
</g>
</g>
</g>
<g id="Group 427322248">
<g id="Group 427322258">
<g id="Group 427322246">
<ellipse id="Ellipse 40" cx="76.7708" cy="144.284" rx="14.8958" ry="14.962" fill="#2C2726"/>
<ellipse id="Ellipse 41" cx="5.8352" cy="4.49764" rx="5.8352" ry="4.49764" transform="matrix(0.96304 -0.269358 0.26715 0.963655 70 135.814)" fill="white"/>
</g>
<g id="Group 427322246_2">
<ellipse id="Ellipse 40_2" cx="14.8958" cy="14.962" rx="14.8958" ry="14.962" transform="matrix(-1 0 0 1 163.125 129.322)" fill="#2C2726"/>
<ellipse id="Ellipse 41_2" cx="5.8352" cy="4.49764" rx="5.8352" ry="4.49764" transform="matrix(0.96304 -0.269358 0.26715 0.963655 141.358 135.814)" fill="white"/>
</g>
</g>
<path id="Vector 22 (Stroke)" fill-rule="evenodd" clip-rule="evenodd" d="M136.266 113.784C136.122 114.931 136.931 115.978 138.072 116.123L160.364 118.948C161.506 119.092 162.548 118.28 162.692 117.133C162.836 115.987 162.027 114.94 160.886 114.795L138.594 111.97C137.453 111.826 136.41 112.638 136.266 113.784Z" fill="#2C2726"/>
</g>
<g id="Group 427322249">
<g id="Group 427322247">
<path id="Vector 22 (Stroke)_2" fill-rule="evenodd" clip-rule="evenodd" d="M88.7337 113.784C88.8777 114.931 88.0691 115.978 86.9275 116.123L64.6358 118.948C63.4943 119.092 62.4521 118.28 62.3081 117.133C62.1641 115.987 62.9727 114.94 64.1143 114.795L86.4059 111.97C87.5475 111.826 88.5896 112.638 88.7337 113.784Z" fill="#2C2726"/>
</g>
</g>
<g id="Group 427322251_2">
<ellipse id="Ellipse 38_2" cx="58.2293" cy="172.744" rx="20.5208" ry="15.1713" fill="#FFE6E6"/>
<g id="Group 427322250_2">
<path id="Vector 23 (Stroke)_2" fill-rule="evenodd" clip-rule="evenodd" d="M52.2897 165.171C53.404 165.459 54.0751 166.6 53.7885 167.719L50.976 178.705C50.6895 179.825 49.5539 180.499 48.4395 180.211C47.3252 179.923 46.6541 178.782 46.9407 177.663L49.7532 166.677C50.0397 165.558 51.1753 164.884 52.2897 165.171Z" fill="#FFAD9B"/>
<path id="Vector 24 (Stroke)_2" fill-rule="evenodd" clip-rule="evenodd" d="M60.2062 165.171C61.3205 165.459 61.9916 166.6 61.705 167.719L58.8925 178.705C58.606 179.825 57.4704 180.499 56.356 180.211C55.2417 179.923 54.5706 178.782 54.8572 177.663L57.6697 166.677C57.9562 165.558 59.0918 164.884 60.2062 165.171Z" fill="#FFAD9B"/>
<path id="Vector 25 (Stroke)_2" fill-rule="evenodd" clip-rule="evenodd" d="M68.1232 165.171C69.2375 165.459 69.9086 166.6 69.622 167.719L66.8095 178.705C66.523 179.825 65.3874 180.499 64.273 180.211C63.1587 179.923 62.4876 178.782 62.7742 177.663L65.5867 166.677C65.8732 165.558 67.0088 164.884 68.1232 165.171Z" fill="#FFAD9B"/>
</g>
</g>
<path id="Union" d="M126.793 167.515C118.517 160.534 106.443 160.534 98.1672 167.515L92.3438 172.428C87.8884 176.186 88.1609 183.157 92.8958 186.553L99.5473 191.323C107.284 196.872 117.676 196.872 125.413 191.323L132.065 186.553C136.8 183.157 137.072 176.186 132.617 172.428L126.793 167.515Z" fill="#FF9403"/>
</g>
<rect x="0.5" y="0.5" width="224" height="225" rx="19.5" stroke="#08BECA"/>
</g>
<defs>
<clipPath id="clip0_5058_17396">
<rect width="225" height="226" rx="20" fill="white"/>
</clipPath>
</defs>
</svg>
