<svg width="225" height="226" viewBox="0 0 225 226" fill="none" xmlns="http://www.w3.org/2000/svg">
<g clip-path="url(#clip0_5058_17307)">
<rect width="225" height="226" rx="20" fill="#08BECA"/>
<ellipse cx="111.538" cy="172.833" rx="126.369" ry="126.931" fill="white"/>
<path d="M126.793 166.784C118.517 159.803 106.443 159.803 98.1672 166.784L92.3438 171.697C87.8884 175.455 88.1609 182.426 92.8958 185.822L99.5473 190.592C107.284 196.141 117.676 196.141 125.413 190.592L132.065 185.822C136.8 182.426 137.072 175.455 132.617 171.697L126.793 166.784Z" fill="#FF9403"/>
<ellipse cx="148.031" cy="140.789" rx="18.8419" ry="20.6681" fill="#2C2726"/>
<ellipse cx="76.9669" cy="140.789" rx="18.8419" ry="20.6681" fill="#2C2726"/>
<path fill-rule="evenodd" clip-rule="evenodd" d="M92.767 138.93C105.203 125.38 123.419 129.171 132.069 138.964C132.942 139.954 132.852 141.467 131.867 142.345C130.882 143.223 129.375 143.132 128.501 142.143C121.372 134.07 106.453 131.085 96.2732 142.177C95.3807 143.149 93.8722 143.211 92.904 142.315C91.9358 141.418 91.8745 139.903 92.767 138.93Z" fill="#2C2726"/>
<path fill-rule="evenodd" clip-rule="evenodd" d="M204.93 90.8186H19.4536C25.509 48.3126 64.6962 15.4795 112.188 15.4795C159.699 15.4795 198.899 48.2949 204.93 90.8186Z" fill="#2C2726"/>
<mask id="mask0_5058_17307" style="mask-type:alpha" maskUnits="userSpaceOnUse" x="-39" y="4" width="303" height="104">
<ellipse cx="112.5" cy="55.8721" rx="151.042" ry="51.687" fill="#D9D9D9"/>
</mask>
<g mask="url(#mask0_5058_17307)">
<path fill-rule="evenodd" clip-rule="evenodd" d="M133.935 140.832C145.798 137.017 164.318 132.295 208.262 130.974C211.541 130.66 214.04 127.945 214.04 124.656V114.736C214.04 77.4036 194.102 44.7186 164.326 26.8619C164.326 26.8619 156.465 73.1222 145.793 69.5717C137.204 65.8124 150.01 19.7088 150.01 19.7088C140.327 15.7928 129.864 13.2866 118.984 12.5557L117.735 52.3938C117.637 56.767 115.787 60.4002 111.708 60.9872C107.628 60.4002 105.779 56.767 105.681 52.3938L104.431 12.5557C93.5512 13.2866 83.0878 15.7928 73.4052 19.7088C73.4052 19.7088 86.2112 65.8124 77.6218 69.5717C66.9501 73.1222 59.0895 26.8619 59.0895 26.8619C29.3128 44.7186 9.375 77.4036 9.375 114.736V124.656C9.375 127.945 11.8737 130.66 15.1533 130.974C59.0971 132.295 77.6169 137.017 89.4796 140.832H87.9167C89.4066 141.311 90.7915 141.775 92.1082 142.217C98.5425 144.376 103.352 145.989 110.863 146.063H110.967C111.217 146.061 111.464 146.057 111.708 146.051C111.951 146.057 112.198 146.061 112.448 146.063H112.552C120.063 145.989 124.873 144.376 131.307 142.217C132.624 141.775 134.008 141.311 135.498 140.832H133.935ZM61.7964 88.8382C58.5168 91.2921 52.4782 88.2638 48.3137 82.0505C44.1491 75.8372 43.4203 68.7886 46.752 66.3346C50.0836 63.8806 56.0702 66.9089 60.2347 73.1222C64.3993 79.3355 65.1281 86.3842 61.7964 88.8382ZM161.619 88.8382C164.898 91.2921 170.937 88.2638 175.101 82.0505C179.266 75.8372 179.995 68.7886 176.663 66.3346C173.332 63.8806 167.345 66.9089 163.18 73.1222C159.016 79.3355 158.287 86.3842 161.619 88.8382Z" fill="#43A476"/>
</g>
</g>
<rect x="0.5" y="0.5" width="224" height="225" rx="19.5" stroke="#08BECA"/>
<defs>
<clipPath id="clip0_5058_17307">
<rect width="225" height="226" rx="20" fill="white"/>
</clipPath>
</defs>
</svg>
