<svg width="225" height="226" viewBox="0 0 225 226" fill="none" xmlns="http://www.w3.org/2000/svg">
<g id="&#236;&#157;&#180;&#234;&#184;&#176;&#236;&#176;&#172;">
<g clip-path="url(#clip0_5058_17211)">
<rect width="225" height="226" rx="20" fill="#08BECA"/>
<ellipse id="Ellipse 11" cx="111.538" cy="172.833" rx="126.369" ry="126.931" fill="white"/>
<g id="Group 427322265">
<path id="Union" d="M131.685 166.795C120.592 159.799 104.408 159.799 93.3146 166.795L85.5088 171.717C79.5369 175.483 79.902 182.468 86.2488 185.87L95.1646 190.65C105.535 196.211 119.465 196.211 129.835 190.65L138.751 185.87C145.098 182.468 145.463 175.483 139.491 171.717L131.685 166.795Z" fill="#FFB803"/>
<g id="Mask group">
<mask id="mask0_5058_17211" style="mask-type:alpha" maskUnits="userSpaceOnUse" x="81" y="161" width="63" height="34">
<path id="Union_2" d="M131.685 166.795C120.592 159.799 104.408 159.799 93.3146 166.795L85.5088 171.717C79.5369 175.483 79.902 182.468 86.2488 185.87L95.1646 190.65C105.535 196.211 119.465 196.211 129.835 190.65L138.751 185.87C145.098 182.468 145.463 175.483 139.491 171.717L131.685 166.795Z" fill="#FF9403"/>
</mask>
<g mask="url(#mask0_5058_17211)">
<g id="Rectangle 3" style="mix-blend-mode:multiply">
<rect x="49.5835" y="178.499" width="110" height="16.3222" fill="#E9D676"/>
</g>
</g>
</g>
</g>
<g id="Group 427322272">
<g id="Group 427322270">
<g id="Group 427322266">
<path id="Ellipse 42 (Stroke)" fill-rule="evenodd" clip-rule="evenodd" d="M72.8 123.672C63.5446 123.672 56.0417 131.209 56.0417 140.505C56.0417 149.802 63.5446 157.338 72.8 157.338C82.0554 157.338 89.5583 149.802 89.5583 140.505C89.5583 131.209 82.0554 123.672 72.8 123.672ZM51.875 140.505C51.875 128.897 61.2434 119.487 72.8 119.487C84.3566 119.487 93.725 128.897 93.725 140.505C93.725 152.113 84.3566 161.523 72.8 161.523C61.2434 161.523 51.875 152.113 51.875 140.505Z" fill="#2C2726"/>
<ellipse id="Ellipse 43" cx="72.7083" cy="140.413" rx="5.20833" ry="5.23148" fill="#2C2726"/>
</g>
<g id="Group 427322269">
<path id="Vector 29 (Stroke)" fill-rule="evenodd" clip-rule="evenodd" d="M72.7083 108.396C73.8589 108.396 74.7917 109.333 74.7917 110.489V121.057C74.7917 122.212 73.8589 123.149 72.7083 123.149C71.5577 123.149 70.625 122.212 70.625 121.057V110.489C70.625 109.333 71.5577 108.396 72.7083 108.396Z" fill="#2C2726"/>
<g id="Group 427322268">
<path id="Vector 30 (Stroke)" fill-rule="evenodd" clip-rule="evenodd" d="M57.4248 112.674C58.4676 112.186 59.7071 112.639 60.1934 113.686L64.6397 123.264C65.1259 124.311 64.6748 125.556 63.632 126.045C62.5892 126.533 61.3496 126.08 60.8634 125.033L56.4171 115.455C55.9308 114.408 56.382 113.163 57.4248 112.674Z" fill="#2C2726"/>
<path id="Vector 31 (Stroke)" fill-rule="evenodd" clip-rule="evenodd" d="M88.0069 112.674C86.9641 112.186 85.7245 112.639 85.2383 113.686L80.792 123.264C80.3057 124.311 80.7569 125.556 81.7997 126.045C82.8425 126.533 84.082 126.08 84.5683 125.033L89.0146 115.455C89.5008 114.408 89.0497 113.163 88.0069 112.674Z" fill="#2C2726"/>
</g>
</g>
</g>
<g id="Group 427322271">
<g id="Group 427322266_2">
<path id="Ellipse 42 (Stroke)_2" fill-rule="evenodd" clip-rule="evenodd" d="M152.15 123.672C142.895 123.672 135.392 131.209 135.392 140.505C135.392 149.802 142.895 157.338 152.15 157.338C161.405 157.338 168.908 149.802 168.908 140.505C168.908 131.209 161.405 123.672 152.15 123.672ZM131.225 140.505C131.225 128.897 140.594 119.487 152.15 119.487C163.707 119.487 173.075 128.897 173.075 140.505C173.075 152.113 163.707 161.523 152.15 161.523C140.594 161.523 131.225 152.113 131.225 140.505Z" fill="#2C2726"/>
<ellipse id="Ellipse 43_2" cx="152.058" cy="140.413" rx="5.20833" ry="5.23148" fill="#2C2726"/>
</g>
<g id="Group 427322269_2">
<path id="Vector 29 (Stroke)_2" fill-rule="evenodd" clip-rule="evenodd" d="M152.058 108.396C153.209 108.396 154.142 109.333 154.142 110.489V121.057C154.142 122.212 153.209 123.149 152.058 123.149C150.908 123.149 149.975 122.212 149.975 121.057V110.489C149.975 109.333 150.908 108.396 152.058 108.396Z" fill="#2C2726"/>
<g id="Group 427322268_2">
<path id="Vector 30 (Stroke)_2" fill-rule="evenodd" clip-rule="evenodd" d="M136.775 112.674C137.818 112.186 139.057 112.639 139.543 113.686L143.99 123.264C144.476 124.311 144.025 125.556 142.982 126.045C141.939 126.533 140.7 126.08 140.213 125.033L135.767 115.455C135.281 114.408 135.732 113.163 136.775 112.674Z" fill="#2C2726"/>
<path id="Vector 31 (Stroke)_2" fill-rule="evenodd" clip-rule="evenodd" d="M167.357 112.674C166.314 112.186 165.075 112.639 164.588 113.686L160.142 123.264C159.656 124.311 160.107 125.556 161.15 126.045C162.193 126.533 163.432 126.08 163.918 125.033L168.365 115.455C168.851 114.408 168.4 113.163 167.357 112.674Z" fill="#2C2726"/>
</g>
</g>
</g>
</g>
</g>
<rect x="0.5" y="0.5" width="224" height="225" rx="19.5" stroke="#08BECA"/>
</g>
<defs>
<clipPath id="clip0_5058_17211">
<rect width="225" height="226" rx="20" fill="white"/>
</clipPath>
</defs>
</svg>
