<svg width="24" height="24" viewBox="0 0 24 24" fill="none" xmlns="http://www.w3.org/2000/svg">
<path d="M19.359 5.69499C18.4047 4.73631 17.1397 4.15119 15.7926 4.04532C14.4454 3.93945 13.1049 4.31981 12.0131 5.11769C10.8677 4.26403 9.44203 3.87695 8.0232 4.03438C6.60437 4.1918 5.29778 4.88205 4.36652 5.96613C3.43526 7.0502 2.94852 8.44756 3.00432 9.87683C3.06011 11.3061 3.6543 12.6611 4.66722 13.669L10.2576 19.2796C10.7258 19.7413 11.3563 20 12.0131 20C12.6699 20 13.3004 19.7413 13.7685 19.2796L19.359 13.669C20.41 12.6093 21 11.176 21 9.68198C21 8.18796 20.41 6.75464 19.359 5.69499ZM18.0896 12.4242L12.4992 18.0258C12.4356 18.0902 12.3599 18.1413 12.2764 18.1761C12.193 18.211 12.1035 18.2289 12.0131 18.2289C11.9227 18.2289 11.8332 18.211 11.7497 18.1761C11.6663 18.1413 11.5906 18.0902 11.527 18.0258L5.93654 12.3971C5.23054 11.674 4.83521 10.7026 4.83521 9.691C4.83521 8.6794 5.23054 7.70802 5.93654 6.9849C6.65596 6.27318 7.62625 5.8741 8.63723 5.8741C9.64821 5.8741 10.6185 6.27318 11.3379 6.9849C11.4216 7.06944 11.5212 7.13655 11.6309 7.18234C11.7406 7.22814 11.8582 7.25172 11.9771 7.25172C12.0959 7.25172 12.2136 7.22814 12.3233 7.18234C12.433 7.13655 12.5326 7.06944 12.6162 6.9849C13.3357 6.27318 14.3059 5.8741 15.3169 5.8741C16.3279 5.8741 17.2982 6.27318 18.0176 6.9849C18.7333 7.69854 19.1416 8.66466 19.1551 9.67628C19.1686 10.6879 18.7861 11.6646 18.0896 12.3971V12.4242Z" fill="#646464"/>
</svg>
