<svg width="78" height="34" viewBox="0 0 78 34" fill="none" xmlns="http://www.w3.org/2000/svg">
<path d="M20.0566 0.791452C19.1967 0.791452 18.4462 1.05863 17.8537 1.6218C17.2472 2.19815 16.966 2.96758 16.966 3.86189V8.53146C16.966 9.40646 17.2511 10.1656 17.8419 10.76C18.4327 11.3545 19.187 11.6415 20.0566 11.6415H26.459L26.4906 11.6379C27.056 11.5747 27.5601 11.3801 27.9743 11.0328L27.9847 11.024L27.9947 11.0148C28.4411 10.603 28.6526 10.0593 28.6526 9.44162C28.6526 8.81446 28.4509 8.25603 27.9848 7.8594C27.5546 7.46714 27.0217 7.28136 26.4272 7.28136H22.1801C21.8587 7.28136 21.7158 7.19203 21.64 7.10421C21.5508 7.00082 21.4561 6.78563 21.4561 6.35496V5.88009C21.4561 5.63662 21.5202 5.45435 21.6339 5.30524C21.7301 5.20467 21.9051 5.11198 22.2588 5.11198H26.2699C26.8545 5.11198 27.3838 4.94567 27.817 4.58243L27.8274 4.57371L27.8374 4.5645C28.2838 4.1527 28.4953 3.60896 28.4953 2.99129C28.4953 2.35782 28.2906 1.79659 27.8374 1.37851C27.4054 0.980075 26.8689 0.791452 26.2699 0.791452H20.0566Z" fill="white"/>
<path d="M37.5687 8.38569L37.5775 8.37682L37.5859 8.36757C37.9759 7.93943 38.1693 7.41574 38.1693 6.82983C38.1693 6.30918 38.0111 5.83148 37.7006 5.41496C37.3082 4.88848 36.6679 4.70914 35.9832 4.70914H34.9608C34.7333 4.70914 34.6649 4.64942 34.6444 4.62712C34.6162 4.59644 34.5514 4.49576 34.5514 4.21804V2.23941C34.5514 2.01469 34.4892 1.76151 34.4066 1.51066C34.296 1.14569 34.0852 0.821699 33.8044 0.536334C33.4363 0.130228 32.8884 0 32.326 0C31.7099 0 31.1571 0.183154 30.7192 0.587056C30.2597 1.01092 30.0613 1.58979 30.0613 2.23941V12.7262C30.0613 13.3605 30.2657 13.9229 30.7012 14.3612C31.1367 14.7994 31.6956 15.0051 32.326 15.0051C32.9197 15.0051 33.443 14.789 33.864 14.3693C34.3262 13.9357 34.5514 13.3713 34.5514 12.7262V9.28333C34.5514 9.10723 34.5966 9.06877 34.6021 9.06411L34.6025 9.06382C34.6199 9.04837 34.7048 8.9901 34.9608 8.9901H35.9832C36.5977 8.9901 37.1498 8.80725 37.5687 8.38569Z" fill="white"/>
<path d="M28.7753 19.3442L28.7769 19.3462L28.7785 19.3482C28.9373 19.5399 29.0388 19.8089 29.0388 20.2054V23.1733C29.0388 23.7753 29.2264 24.3136 29.6394 24.7292C30.0687 25.1611 30.6111 25.3732 31.2249 25.3732C31.8346 25.3732 32.3738 25.164 32.8016 24.7379C33.2417 24.3272 33.4503 23.7867 33.4503 23.1733V17.8706C33.4503 16.944 33.18 16.151 32.5432 15.6127C31.9587 15.0929 31.2453 14.8397 30.4384 14.8397H24.1464C23.5308 14.8397 22.9783 15.0226 22.5406 15.4258C22.1083 15.8217 21.921 16.3604 21.921 16.9604C21.921 17.5757 22.1017 18.1325 22.5404 18.5344C22.9781 18.9378 23.5306 19.1207 24.1464 19.1207H28.1182C28.5061 19.1207 28.6822 19.2298 28.7753 19.3442Z" fill="white"/>
<path d="M59.8872 0.791452C59.0274 0.791452 58.2769 1.05863 57.6843 1.6218C57.0779 2.19815 56.7967 2.96758 56.7967 3.86189V8.53146C56.7967 9.40646 57.0818 10.1656 57.6726 10.76C58.2634 11.3545 59.0177 11.6415 59.8872 11.6415H66.2897L66.3213 11.6379C66.8867 11.5747 67.3908 11.3801 67.805 11.0328L67.8154 11.024L67.8254 11.0148C68.2718 10.603 68.4833 10.0593 68.4833 9.44162C68.4833 8.81446 68.2816 8.25603 67.8155 7.8594C67.3853 7.46714 66.8524 7.28136 66.2579 7.28136H62.0108C61.6894 7.28136 61.5465 7.19203 61.4707 7.10421C61.3815 7.00082 61.2868 6.78563 61.2868 6.35496V5.88009C61.2868 5.63662 61.3509 5.45435 61.4646 5.30524C61.5608 5.20467 61.7358 5.11198 62.0895 5.11198H66.1006C66.6852 5.11198 67.2145 4.94567 67.6477 4.58243L67.6581 4.57371L67.6681 4.5645C68.1145 4.1527 68.326 3.60896 68.326 2.99129C68.326 2.35782 68.1213 1.79659 67.6681 1.37851C67.2361 0.980075 66.6996 0.791452 66.1006 0.791452H59.8872Z" fill="white"/>
<path d="M77.3994 8.38569L77.4082 8.37682L77.4166 8.36757C77.8066 7.93943 78 7.41574 78 6.82983C78 6.30918 77.8418 5.83148 77.5313 5.41496C77.1389 4.88848 76.4986 4.70914 75.8139 4.70914H74.7915C74.564 4.70914 74.4956 4.64942 74.4751 4.62712C74.4469 4.59644 74.3821 4.49576 74.3821 4.21804V2.23941C74.3821 2.01469 74.3199 1.76151 74.2373 1.51066C74.1266 1.14569 73.9159 0.821699 73.6351 0.536334C73.267 0.130228 72.7191 0 72.1567 0C71.5406 0 70.9878 0.183154 70.5499 0.587056C70.0904 1.01092 69.892 1.58979 69.892 2.23941V12.7262C69.892 13.3605 70.0964 13.9229 70.5319 14.3612C70.9674 14.7994 71.5263 15.0051 72.1567 15.0051C72.7504 15.0051 73.2737 14.789 73.6947 14.3693C74.1569 13.9357 74.3821 13.3713 74.3821 12.7262V9.28333C74.3821 9.10723 74.4273 9.06877 74.4328 9.06411L74.4332 9.06382C74.4506 9.04837 74.5354 8.9901 74.7915 8.9901H75.8139C76.4284 8.9901 76.9805 8.80725 77.3994 8.38569Z" fill="white"/>
<path d="M68.6059 19.3442L68.6076 19.3462L68.6092 19.3482C68.768 19.5399 68.8695 19.8089 68.8695 20.2054V23.1733C68.8695 23.7753 69.0571 24.3136 69.4701 24.7292C69.8994 25.1611 70.4418 25.3732 71.0556 25.3732C71.6653 25.3732 72.2044 25.164 72.6323 24.7379C73.0724 24.3272 73.281 23.7867 73.281 23.1733V17.8706C73.281 16.944 73.0107 16.151 72.3738 15.6127C71.7894 15.0929 71.076 14.8397 70.2691 14.8397H63.9771C63.3615 14.8397 62.809 15.0226 62.3713 15.4258C61.939 15.8217 61.7517 16.3604 61.7517 16.9604C61.7517 17.5757 61.9324 18.1325 62.3711 18.5344C62.8088 18.9378 63.3613 19.1207 63.9771 19.1207H67.9489C68.3368 19.1207 68.5129 19.2298 68.6059 19.3442Z" fill="white"/>
<path fill-rule="evenodd" clip-rule="evenodd" d="M51.8753 19.4177L51.8746 19.417L51.8738 19.4163C51.2966 18.9038 50.5451 18.6783 49.6852 18.6783H49.6195C49.653 18.5077 49.6691 18.3302 49.6691 18.1476V17.3561C49.6691 17.048 49.7391 16.9247 49.7781 16.8808C49.8065 16.849 49.8826 16.7859 50.1178 16.7859H52.9099C53.5636 16.7859 54.1553 16.5959 54.5607 16.1141C54.9238 15.7116 55.1353 15.2375 55.1353 14.7048C55.1353 14.1067 54.9193 13.5833 54.4864 13.1795C54.0686 12.7643 53.52 12.5841 52.9099 12.5841H42.0168C41.4178 12.5841 40.8813 12.7727 40.4494 13.1711L40.4402 13.1796L40.4314 13.1885C40.0249 13.5975 39.8307 14.1188 39.8307 14.7048C39.8307 15.2249 40.0195 15.6957 40.357 16.1033C40.7625 16.593 41.3582 16.7859 42.0168 16.7859H44.7696C45.0106 16.7859 45.089 16.8492 45.116 16.8784C45.1504 16.9157 45.2183 17.026 45.2183 17.3166V18.1476C45.2183 18.3302 45.2343 18.5077 45.2679 18.6783H44.2977C43.7131 18.6783 43.1838 18.8446 42.7506 19.2078L42.7402 19.2165L42.7302 19.2257C42.2838 19.6375 42.0723 20.1813 42.0723 20.7989C42.0723 21.4261 42.274 21.9845 42.7401 22.3812C43.1703 22.7734 43.7032 22.9592 44.2977 22.9592H47.6403C47.8969 22.9592 48.0613 22.9865 48.1569 23.0186C48.1866 23.0286 48.2045 23.0371 48.2143 23.0426L48.2247 23.0583C48.332 23.2203 48.3643 23.3482 48.3643 23.4503V23.7669C48.3643 23.8194 48.349 23.8878 48.2665 23.9847L48.2543 23.999L48.2442 24.0126C48.2391 24.0172 48.2189 24.0327 48.1667 24.0502C48.0869 24.077 47.9564 24.0997 47.7583 24.0997H45.2021C44.3327 24.0997 43.565 24.3858 42.9307 24.9602C42.2753 25.5538 41.9543 26.3349 41.9543 27.2493V30.89C41.9543 31.7748 42.2595 32.5373 42.8806 33.1294C43.4845 33.7052 44.2153 34 45.0448 34H50.865C51.4745 34 52.0116 33.79 52.4198 33.3472C52.8365 32.9236 53.051 32.3973 53.051 31.8001C53.051 31.1667 52.8463 30.6054 52.3931 30.1874L52.3922 30.1866L52.3913 30.1857C51.9761 29.8058 51.4479 29.6399 50.865 29.6399H47.1291C46.8725 29.6399 46.7081 29.6125 46.6125 29.5805C46.5909 29.5732 46.5755 29.5667 46.565 29.5616C46.5109 29.4187 46.4837 29.2691 46.4837 29.1092V28.7926C46.4837 28.6684 46.5061 28.553 46.5514 28.4422C46.5593 28.4388 46.5696 28.4347 46.583 28.4302C46.6603 28.4043 46.796 28.3807 47.0111 28.3807H49.6852C50.5021 28.3807 51.2268 28.108 51.8311 27.5665C52.4715 27.0204 52.7758 26.271 52.7758 25.3894V21.7091C52.7758 20.7769 52.5028 19.9789 51.8753 19.4177ZM46.5308 28.4532C46.5308 28.4532 46.5312 28.4528 46.5321 28.4522C46.5313 28.4529 46.5308 28.4532 46.5308 28.4532ZM46.5452 29.5502C46.5452 29.5502 46.5459 29.5506 46.5471 29.5516C46.5458 29.5507 46.5452 29.5502 46.5452 29.5502ZM48.2239 23.0488L48.2241 23.0489C48.2241 23.0489 48.2239 23.0487 48.2234 23.0483L48.2223 23.0475L48.2231 23.0481L48.2234 23.0484L48.2239 23.0488ZM48.2455 24.0113C48.2455 24.0113 48.2452 24.0117 48.2444 24.0124C48.2451 24.0116 48.2455 24.0113 48.2455 24.0113Z" fill="white"/>
<path d="M49.2079 9.81454C48.9326 9.4871 48.6312 9.1583 48.3036 8.82819C47.9484 8.49625 47.7148 8.40474 47.5927 8.39449C47.5313 8.38935 47.3225 8.42568 46.932 8.79395C46.4929 9.2099 46.0535 9.63896 45.614 10.0811C45.1944 10.5297 44.8251 10.9145 44.5067 11.2349L44.4932 11.2485L44.4789 11.2612C43.946 11.7304 43.3188 11.9379 42.6395 11.786C42.0933 11.6638 41.6157 11.4414 41.2376 11.0956L41.2112 11.0714L41.1879 11.0441C40.7854 10.5715 40.5825 10.0185 40.6182 9.4077L40.6192 9.39088L40.6212 9.37414C40.6903 8.78258 40.9582 8.28541 41.4217 7.92276C41.5824 7.78846 41.7447 7.66535 41.9088 7.55393C42.0676 7.42176 42.2373 7.29074 42.4176 7.16077C42.9295 6.74828 43.4287 6.32306 43.9151 5.88509C44.3568 5.48743 44.7041 5.02137 44.9598 4.48336L44.9641 4.4743L44.9687 4.46539C45.2211 3.97863 45.3448 3.34227 45.2987 2.52432C45.2319 1.87881 45.4396 1.30619 45.9141 0.865398C46.3561 0.454785 46.8867 0.237414 47.483 0.237414C48.0964 0.237414 48.6424 0.448486 49.0912 0.865399C49.5657 1.30609 49.7733 1.87855 49.7067 2.52387C49.6592 3.38593 49.7624 4.03054 49.9716 4.49355C50.1997 4.9985 50.5169 5.43242 50.926 5.7997C51.4007 6.2017 51.9132 6.60483 52.4639 7.009C52.6387 7.10048 52.8024 7.2069 52.9537 7.32871C53.0703 7.42261 53.2009 7.51834 53.3461 7.61574L53.3623 7.62659L53.3777 7.63851C53.8872 8.03291 54.1096 8.61172 54.1128 9.26885C54.142 9.9176 53.9612 10.5011 53.5204 10.9496C53.0972 11.4067 52.5489 11.6468 51.9176 11.6802L51.9025 11.681H51.8874C51.2663 11.681 50.7282 11.4494 50.3256 10.9817C49.9086 10.5617 49.5413 10.1788 49.2243 9.83321L49.2159 9.82406L49.2079 9.81454Z" fill="white"/>
<path fill-rule="evenodd" clip-rule="evenodd" d="M12.0446 19.4177L12.0438 19.417L12.043 19.4163C11.4659 18.9038 10.7144 18.6783 9.85448 18.6783H9.78874C9.82228 18.5077 9.83835 18.3302 9.83835 18.1476V17.3561C9.83835 17.048 9.90834 16.9247 9.94741 16.8808C9.97579 16.849 10.0519 16.7859 10.2871 16.7859H13.0791C13.7329 16.7859 14.3246 16.5959 14.7299 16.1141C15.0931 15.7116 15.3045 15.2375 15.3045 14.7048C15.3045 14.1067 15.0886 13.5833 14.6557 13.1795C14.2378 12.7643 13.6892 12.5841 13.0791 12.5841H2.18608C1.58706 12.5841 1.05057 12.7727 0.618629 13.1711L0.609439 13.1796L0.600623 13.1885C0.194126 13.5975 0 14.1188 0 14.7048C0 15.2249 0.188737 15.6957 0.526234 16.1033C0.931809 16.593 1.52749 16.7859 2.18608 16.7859H4.93884C5.17986 16.7859 5.25828 16.8492 5.28524 16.8784C5.31965 16.9157 5.38754 17.026 5.38754 17.3166V18.1476C5.38754 18.3302 5.40361 18.5077 5.43716 18.6783H4.46694C3.88239 18.6783 3.35303 18.8446 2.91988 19.2078L2.90947 19.2165L2.89949 19.2257C2.45307 19.6375 2.24153 20.1813 2.24153 20.7989C2.24153 21.4261 2.44322 21.9845 2.90932 22.3812C3.33955 22.7734 3.87245 22.9592 4.46694 22.9592H7.80957C8.06613 22.9592 8.23053 22.9865 8.32616 23.0186C8.35584 23.0286 8.37378 23.0371 8.38357 23.0426L8.39396 23.0583C8.5013 23.2203 8.53355 23.3482 8.53355 23.4503V23.7669C8.53355 23.8194 8.51829 23.8878 8.43573 23.9847L8.42357 23.999L8.41342 24.0126C8.40839 24.0172 8.38813 24.0327 8.33599 24.0502C8.2562 24.077 8.12569 24.0997 7.92755 24.0997H5.37141C4.50192 24.0997 3.73428 24.3858 3.09999 24.9602C2.44458 25.5538 2.12356 26.3349 2.12356 27.2493V30.89C2.12356 31.7748 2.42878 32.5373 3.04989 33.1294C3.65379 33.7052 4.38459 34 5.21411 34H11.0342C11.6438 34 12.1809 33.79 12.5891 33.3472C13.0058 32.9236 13.2203 32.3973 13.2203 31.8001C13.2203 31.1667 13.0156 30.6054 12.5624 30.1874L12.5615 30.1866L12.5606 30.1857C12.1453 29.8058 11.6172 29.6399 11.0342 29.6399H7.29835C7.04179 29.6399 6.87739 29.6125 6.78176 29.5805C6.76017 29.5732 6.74479 29.5667 6.73424 29.5616C6.68018 29.4187 6.65301 29.2691 6.65301 29.1092V28.7926C6.65301 28.6684 6.67541 28.553 6.72071 28.4422C6.72853 28.4388 6.73888 28.4347 6.75226 28.4302C6.82953 28.4043 6.96522 28.3807 7.18037 28.3807H9.85448C10.6713 28.3807 11.396 28.108 12.0003 27.5665C12.6408 27.0204 12.945 26.271 12.945 25.3894V21.7091C12.945 20.7769 12.6721 19.9789 12.0446 19.4177ZM6.7014 28.4522C6.70046 28.4528 6.70006 28.4532 6.70006 28.4532C6.70006 28.4532 6.70028 28.453 6.70065 28.4528C6.70085 28.4526 6.7011 28.4524 6.7014 28.4522ZM6.71451 29.5502C6.71451 29.5502 6.71521 29.5506 6.71632 29.5516C6.71502 29.5507 6.71451 29.5502 6.71451 29.5502ZM8.3916 23.0475C8.39273 23.0485 8.39341 23.0489 8.39341 23.0489C8.39341 23.0489 8.39328 23.0488 8.39297 23.0485C8.39268 23.0483 8.39222 23.0479 8.3916 23.0475ZM8.4146 24.0115L8.41475 24.0113C8.41475 24.0113 8.41434 24.0116 8.41365 24.0124C8.41412 24.012 8.41443 24.0117 8.4146 24.0115Z" fill="white"/>
<path d="M9.37716 9.81454C9.10183 9.4871 8.8005 9.1583 8.47283 8.82819C8.11762 8.49625 7.8841 8.40474 7.76192 8.39449C7.7006 8.38935 7.49179 8.42568 7.1013 8.79395C6.66213 9.2099 6.22277 9.63896 5.78323 10.0811C5.36362 10.5297 4.99439 10.9145 4.67601 11.2349L4.6625 11.2485L4.64813 11.2612C4.11523 11.7304 3.48803 11.9379 2.80879 11.786C2.2626 11.6638 1.78493 11.4414 1.40688 11.0956L1.38045 11.0714L1.3572 11.0441C0.954688 10.5715 0.751789 10.0185 0.787493 9.4077L0.788476 9.39088L0.790433 9.37414C0.859594 8.78258 1.12744 8.28541 1.59099 7.92276C1.75166 7.78846 1.914 7.66535 2.07809 7.55393C2.2369 7.42176 2.40658 7.29074 2.58682 7.16077C3.09876 6.74828 3.59794 6.32306 4.08436 5.88509C4.52603 5.48743 4.87339 5.02137 5.12909 4.48336L5.1334 4.4743L5.13801 4.46539C5.39039 3.97863 5.51402 3.34227 5.46796 2.52432C5.40116 1.87881 5.60882 1.30619 6.08336 0.865398C6.5254 0.454785 7.05601 0.237414 7.65227 0.237414C8.26562 0.237414 8.81168 0.448486 9.26051 0.865399C9.73494 1.30609 9.94261 1.87855 9.87595 2.52387C9.82851 3.38593 9.93171 4.03054 10.1408 4.49355C10.3689 4.9985 10.6861 5.43242 11.0952 5.7997C11.5699 6.2017 12.0825 6.60483 12.6331 7.009C12.808 7.10048 12.9716 7.2069 13.123 7.32871C13.2396 7.42261 13.3702 7.51834 13.5154 7.61574L13.5315 7.62659L13.5469 7.63851C14.0564 8.03291 14.2788 8.61172 14.2821 9.26885C14.3112 9.9176 14.1304 10.5011 13.6897 10.9496C13.2664 11.4067 12.7182 11.6468 12.0868 11.6802L12.0718 11.681H12.0567C11.4356 11.681 10.8974 11.4494 10.4949 10.9817C10.0779 10.5617 9.71058 10.1788 9.39356 9.83321L9.38516 9.82406L9.37716 9.81454Z" fill="white"/>
</svg>
