<svg width="226" height="226" viewBox="0 0 226 226" fill="none" xmlns="http://www.w3.org/2000/svg">
<g id="&#234;&#185;&#128;&#237;&#152;&#132;&#236;&#167;&#128;">
<g clip-path="url(#clip0_5058_17185)">
<rect width="226" height="226" rx="20" fill="#08BECA"/>
<circle id="Ellipse 11" cx="112.033" cy="172.833" r="126.931" fill="white"/>
<g id="Group 168">
<g id="Group 111">
<g id="Group 109">
<ellipse id="Ellipse 12" cx="148.689" cy="66.4957" rx="18.9257" ry="20.6681" fill="#2C2726"/>
<ellipse id="Ellipse 13" cx="77.309" cy="66.4957" rx="18.9257" ry="20.6681" fill="#2C2726"/>
<path id="Vector 14 (Stroke)" fill-rule="evenodd" clip-rule="evenodd" d="M93.179 64.637C105.67 51.0862 123.968 54.8773 132.655 64.6709C133.533 65.6604 133.442 67.174 132.453 68.0518C131.464 68.9295 129.95 68.8389 129.072 67.8495C121.911 59.7769 106.926 56.7914 96.7007 67.8834C95.8043 68.856 94.2891 68.9176 93.3166 68.0211C92.3441 67.1246 92.2825 65.6095 93.179 64.637Z" fill="#2C2726"/>
</g>
</g>
</g>
<g id="Group 427322264">
<circle id="Ellipse 24" cx="77.4258" cy="140.832" r="5.23148" fill="#2C2726"/>
<circle id="Ellipse 25" cx="148.783" cy="140.832" r="5.23148" fill="#2C2726"/>
</g>
<path id="Union" d="M127.357 167.515C119.044 160.534 106.917 160.534 98.6037 167.515L92.7544 172.428C88.2792 176.186 88.5529 183.157 93.3089 186.553L99.9899 191.323C107.761 196.872 118.199 196.872 125.971 191.323L132.652 186.553C137.408 183.157 137.681 176.186 133.206 172.428L127.357 167.515Z" fill="#FF9403"/>
</g>
<rect x="0.5" y="0.5" width="225" height="225" rx="19.5" stroke="#08BECA"/>
</g>
<defs>
<clipPath id="clip0_5058_17185">
<rect width="226" height="226" rx="20" fill="white"/>
</clipPath>
</defs>
</svg>
