<svg width="225" height="226" viewBox="0 0 225 226" fill="none" xmlns="http://www.w3.org/2000/svg">
<g clip-path="url(#clip0_5058_17345)">
<rect width="225" height="226" rx="20" fill="#08BECA"/>
<ellipse cx="111.538" cy="172.833" rx="126.369" ry="126.931" fill="white"/>
<path d="M126.793 166.784C118.517 159.803 106.443 159.803 98.1672 166.784L92.3438 171.697C87.8884 175.455 88.1609 182.426 92.8958 185.822L99.5473 190.592C107.284 196.141 117.676 196.141 125.413 190.592L132.065 185.822C136.8 182.426 137.072 175.455 132.617 171.697L126.793 166.784Z" fill="#FF9403"/>
<ellipse cx="148.031" cy="140.789" rx="18.8419" ry="20.6681" fill="#2C2726"/>
<ellipse cx="76.9669" cy="140.789" rx="18.8419" ry="20.6681" fill="#2C2726"/>
<path fill-rule="evenodd" clip-rule="evenodd" d="M92.767 138.93C105.203 125.38 123.419 129.171 132.069 138.964C132.942 139.954 132.852 141.467 131.867 142.345C130.882 143.223 129.375 143.132 128.501 142.143C121.372 134.07 106.453 131.085 96.2732 142.177C95.3807 143.149 93.8722 143.211 92.904 142.315C91.9358 141.418 91.8745 139.903 92.767 138.93Z" fill="#2C2726"/>
<path d="M132.624 14.4173C137.365 13.7601 142.789 14.1504 147.754 15.7475C152.714 17.3433 157.369 20.1967 160.344 24.591L160.345 24.5923C165.023 31.514 164.861 40.522 163.327 49.0171C162.284 54.7923 160.52 60.7049 158.983 65.8567C158.266 68.2587 157.599 70.4953 157.077 72.4754L157.077 72.4765C155.21 79.5446 153.197 86.6007 150.92 93.5742C150.813 93.993 150.571 94.3705 150.225 94.6444C149.745 95.0237 149.119 95.163 148.524 95.0225L118.875 88.0208C118.01 87.8165 117.384 87.0659 117.338 86.1783C116.655 73.0631 116.418 59.9218 116.852 46.7709L132.624 14.4173ZM132.624 14.4173C128.557 14.9765 124.351 16.7457 121.526 20.1362L121.524 20.1381C118.499 23.7773 117.47 28.7426 117.094 33.4548C116.904 35.8439 116.876 38.2581 116.878 40.5199C116.879 41.0961 116.881 41.6593 116.884 42.2094C116.891 43.8481 116.897 45.3699 116.852 46.7698L132.624 14.4173Z" fill="#FFE6E6" stroke="#FFE6E6" stroke-width="4" stroke-linejoin="round"/>
<path d="M145.832 78.8106C147.27 74.4231 148.539 69.9829 149.716 65.5165C151.874 57.3588 157.262 44.2486 151.952 36.393C148.617 31.4537 141.32 29.7459 135.722 30.521C133.381 30.8494 131.053 31.8478 129.536 33.6737C126.24 37.6278 127.038 44.8529 126.881 49.6871C126.607 57.9237 126.764 66.1602 127.182 74.3968L145.858 78.8106H145.832Z" fill="#FFAD9B"/>
<mask id="path-10-outside-1_5058_17345" maskUnits="userSpaceOnUse" x="55.4346" y="30.2817" width="53" height="67" fill="black">
<rect fill="white" x="55.4346" y="30.2817" width="53" height="67"/>
<path d="M77.3692 93.1068C74.6881 88.1675 72.2425 83.11 69.9145 78.0393C65.6772 68.7518 56.0515 54.1441 62.7215 43.9502C66.9065 37.5396 77.2907 34.2949 85.5432 34.2817C88.9958 34.2817 92.527 35.0699 94.9857 36.9747C100.322 41.0996 100.139 49.7828 101.015 55.4709C102.519 65.1656 103.434 76.2744 103.931 86.0742L77.3692 93.12V93.1068Z"/>
</mask>
<path d="M77.3692 93.1068C74.6881 88.1675 72.2425 83.11 69.9145 78.0393C65.6772 68.7518 56.0515 54.1441 62.7215 43.9502C66.9065 37.5396 77.2907 34.2949 85.5432 34.2817C88.9958 34.2817 92.527 35.0699 94.9857 36.9747C100.322 41.0996 100.139 49.7828 101.015 55.4709C102.519 65.1656 103.434 76.2744 103.931 86.0742L77.3692 93.12V93.1068Z" fill="#FFE6E6"/>
<path d="M77.3692 93.1068H81.3692C81.3692 92.4403 81.2027 91.7844 80.8847 91.1986L77.3692 93.1068ZM69.9145 78.0393L66.2754 79.6996L66.2793 79.7082L69.9145 78.0393ZM62.7215 43.9502L66.0686 46.1403L66.0709 46.1368L62.7215 43.9502ZM85.5432 34.2817V30.2817L85.5368 30.2817L85.5432 34.2817ZM94.9857 36.9747L92.536 40.1368L92.5393 40.1394L94.9857 36.9747ZM101.015 55.4709L97.0615 56.0799L97.0621 56.0841L101.015 55.4709ZM103.931 86.0742L104.957 89.9405C106.784 89.456 108.022 87.7591 107.926 85.8716L103.931 86.0742ZM77.3692 93.12H73.3692C73.3692 94.3618 73.9459 95.5331 74.9302 96.2903C75.9144 97.0475 77.1945 97.3046 78.3948 96.9863L77.3692 93.12ZM80.8847 91.1986C78.2615 86.3659 75.8568 81.3955 73.5497 76.3704L66.2793 79.7082C68.6282 84.8244 71.1148 89.9692 73.8537 95.015L80.8847 91.1986ZM73.5537 76.379C71.1814 71.1793 68.0431 65.9195 66.0086 60.0288C64.0161 54.2599 63.7858 49.6291 66.0686 46.1403L59.3743 41.7601C54.9871 48.4651 56.2347 56.2352 58.4469 62.6405C60.6171 68.924 64.4103 75.6118 66.2754 79.6996L73.5537 76.379ZM66.0709 46.1368C67.5349 43.8943 70.3289 41.8946 74.0568 40.4449C77.7293 39.0168 81.8973 38.2875 85.5495 38.2817L85.5368 30.2817C80.9365 30.2891 75.7863 31.1887 71.1573 32.9889C66.5837 34.7675 62.0931 37.5954 59.372 41.7635L66.0709 46.1368ZM85.5432 38.2817C88.5261 38.2817 91.049 38.9848 92.536 40.1368L97.4354 33.8126C94.005 31.1551 89.4656 30.2817 85.5432 30.2817V38.2817ZM92.5393 40.1394C94.0872 41.3359 95.1008 43.4031 95.7621 46.4777C96.084 47.9743 96.2925 49.5601 96.4787 51.2098C96.6562 52.7827 96.826 54.5512 97.0615 56.0799L104.968 54.8618C104.766 53.5465 104.63 52.0965 104.428 50.3126C104.236 48.6056 103.992 46.6962 103.583 44.7954C102.783 41.0752 101.22 36.7384 97.4321 33.81L92.5393 40.1394ZM97.0621 56.0841C98.5372 65.5922 99.4432 76.5517 99.9364 86.2768L107.926 85.8716C107.425 75.9972 106.501 64.7389 104.968 54.8576L97.0621 56.0841ZM102.906 82.2079L76.3436 89.2537L78.3948 96.9863L104.957 89.9405L102.906 82.2079ZM81.3692 93.12V93.1068H73.3692V93.12H81.3692Z" fill="#FFE6E6" mask="url(#path-10-outside-1_5058_17345)"/>
<path d="M79.0432 78.8964C77.3561 75.7831 75.8128 72.604 74.3481 69.4119C71.6801 63.5661 65.6248 54.3575 69.8099 47.9469C72.4517 43.914 78.9778 41.8647 84.183 41.8516C86.354 41.8516 88.5773 42.3507 90.1205 43.5462C93.4817 46.1472 93.364 51.612 93.9263 55.1851C94.881 61.2935 95.4434 67.4545 95.7573 73.6287L79.0301 78.8964H79.0432Z" fill="#FFAD9B"/>
<path d="M72.0846 34.7842L72.0644 34.7916L71.9917 34.8187C71.9293 34.8421 71.8394 34.876 71.7241 34.9205C71.4934 35.0094 71.1606 35.1402 70.7418 35.3119C69.9047 35.6551 68.7214 36.1625 67.3211 36.825C64.5286 38.1463 60.8345 40.1027 57.2921 42.6275C53.7682 45.1391 50.2762 48.2963 48.0178 52.0565C45.7257 55.8729 44.69 60.352 46.2302 65.277C47.0078 67.7633 48.3213 69.6573 50.1267 70.9289C51.9153 72.1887 54.0206 72.7209 56.1961 72.7904C60.4699 72.9268 65.4168 71.2893 70.0386 69.1599C79.1564 64.9591 88.0414 58.3426 90.2262 56.7155C90.2712 56.682 90.3134 56.6506 90.3526 56.6214C94.6439 53.4856 97.2902 50.0391 98.2755 46.5986C99.2831 43.0801 98.4938 39.7318 96.2431 37.1821C91.8629 32.2199 82.6404 30.8358 72.0846 34.7842Z" fill="#FFE6E6" stroke="#FFE6E6" stroke-width="4"/>
</g>
<rect x="0.5" y="0.5" width="224" height="225" rx="19.5" stroke="#08BECA"/>
<defs>
<clipPath id="clip0_5058_17345">
<rect width="225" height="226" rx="20" fill="white"/>
</clipPath>
</defs>
</svg>
