<svg width="120" height="120" viewBox="0 0 120 120" fill="none" xmlns="http://www.w3.org/2000/svg">
<circle cx="60" cy="60" r="60" fill="#EDF7F9"/>
<path d="M82.8934 38.2921L81.256 39.4406L81.256 39.4406L82.8934 38.2921ZM82.8934 69.3846L84.5307 70.5331L82.8934 69.3846ZM79.4446 72.6699L80.5186 74.3571L79.4446 72.6699ZM66.25 74.6727L66.2417 72.6727C65.1404 72.6773 64.25 73.5714 64.25 74.6727H66.25ZM66.25 74.6768L68.0209 75.6063C68.1714 75.3196 68.25 75.0006 68.25 74.6768H66.25ZM62.7553 81.335L64.5262 82.2645L62.7553 81.335ZM57.2447 81.335L55.4738 82.2645L57.2447 81.335ZM53.75 74.6768H51.75C51.75 75.0006 51.8286 75.3196 51.9791 75.6063L53.75 74.6768ZM53.75 74.6727H55.75C55.75 73.5714 54.8596 72.6773 53.7583 72.6727L53.75 74.6727ZM40.5554 72.6699L41.6293 70.9827L40.5554 72.6699ZM37.1066 69.3846L35.4693 70.5331H35.4693L37.1066 69.3846ZM37.1066 38.2921L35.4693 37.1436L35.4693 37.1436L37.1066 38.2921ZM40.5554 35.0068L39.4814 33.3196L39.4814 33.3196L40.5554 35.0068ZM79.4446 35.0068L80.5186 33.3196V33.3196L79.4446 35.0068ZM87 53.8384C87 49.7011 87.0027 46.4401 86.7254 43.8434C86.4439 41.2081 85.8565 39.0337 84.5307 37.1436L81.256 39.4406C82.0369 40.5539 82.5027 41.9716 82.748 44.2682C82.9973 46.6033 83 49.6137 83 53.8384H87ZM84.5307 70.5331C85.8565 68.643 86.4439 66.4686 86.7254 63.8333C87.0027 61.2366 87 57.9757 87 53.8384H83C83 58.063 82.9973 61.0735 82.748 63.4086C82.5027 65.7051 82.0369 67.1229 81.256 68.2361L84.5307 70.5331ZM80.5186 74.3571C82.1005 73.3502 83.4652 72.0522 84.5307 70.5331L81.256 68.2361C80.4975 69.3175 79.5185 70.2521 78.3707 70.9827L80.5186 74.3571ZM66.2583 76.6727C69.6206 76.6587 72.3501 76.5979 74.6041 76.3011C76.8866 76.0005 78.8113 75.4438 80.5186 74.3571L78.3707 70.9827C77.3237 71.6492 76.0225 72.0798 74.0819 72.3353C72.1129 72.5946 69.6222 72.6586 66.2417 72.6727L66.2583 76.6727ZM68.25 74.6768V74.6727H64.25V74.6768H68.25ZM64.5262 82.2645L68.0209 75.6063L64.4791 73.7473L60.9844 80.4055L64.5262 82.2645ZM55.4738 82.2645C57.3886 85.9126 62.6114 85.9126 64.5262 82.2645L60.9844 80.4055C60.568 81.1989 59.432 81.1989 59.0156 80.4055L55.4738 82.2645ZM51.9791 75.6063L55.4738 82.2645L59.0156 80.4055L55.5209 73.7473L51.9791 75.6063ZM51.75 74.6727V74.6768H55.75V74.6727H51.75ZM39.4814 74.3571C41.1887 75.4438 43.1134 76.0005 45.3959 76.3011C47.6499 76.5979 50.3794 76.6587 53.7417 76.6727L53.7583 72.6727C50.3778 72.6586 47.8871 72.5946 45.9181 72.3353C43.9775 72.0798 42.6763 71.6492 41.6293 70.9827L39.4814 74.3571ZM35.4693 70.5331C36.5348 72.0522 37.8995 73.3502 39.4814 74.3571L41.6293 70.9827C40.4815 70.2521 39.5025 69.3175 38.744 68.2361L35.4693 70.5331ZM33 53.8384C33 57.9757 32.9973 61.2366 33.2746 63.8333C33.5561 66.4686 34.1435 68.643 35.4693 70.5331L38.744 68.2361C37.9631 67.1229 37.4973 65.7051 37.252 63.4086C37.0027 61.0735 37 58.063 37 53.8384H33ZM35.4693 37.1436C34.1435 39.0337 33.5561 41.2081 33.2746 43.8434C32.9973 46.4401 33 49.7011 33 53.8384H37C37 49.6137 37.0027 46.6033 37.252 44.2682C37.4973 41.9716 37.9631 40.5539 38.744 39.4406L35.4693 37.1436ZM39.4814 33.3196C37.8995 34.3265 36.5348 35.6245 35.4693 37.1436L38.744 39.4406C39.5025 38.3593 40.4815 37.4246 41.6293 36.694L39.4814 33.3196ZM56.875 31C52.5257 31 49.1203 30.9978 46.4129 31.2602C43.6766 31.5253 41.4353 32.0759 39.4814 33.3196L41.6293 36.694C42.8282 35.9309 44.3578 35.4781 46.7987 35.2415C49.2684 35.0022 52.4464 35 56.875 35V31ZM63.125 31H56.875V35H63.125V31ZM80.5186 33.3196C78.5647 32.0759 76.3234 31.5253 73.5871 31.2602C70.8797 30.9978 67.4743 31 63.125 31V35C67.5536 35 70.7316 35.0022 73.2013 35.2415C75.6422 35.4781 77.1718 35.9309 78.3707 36.694L80.5186 33.3196ZM84.5307 37.1436C83.4652 35.6245 82.1005 34.3265 80.5186 33.3196L78.3707 36.694C79.5185 37.4246 80.4975 38.3593 81.256 39.4406L84.5307 37.1436Z" fill="#3C3C3C"/>
<circle cx="72.2917" cy="54.2881" r="3.125" fill="#0698A2"/>
<circle cx="59.7917" cy="54.2881" r="3.125" fill="#0698A2"/>
<circle cx="47.2915" cy="54.2881" r="3.125" fill="#0698A2"/>
</svg>
