<svg width="120" height="120" viewBox="0 0 120 120" fill="none" xmlns="http://www.w3.org/2000/svg">
<circle cx="60" cy="60" r="60" fill="#EDF7F9"/>
<path d="M35 57.2222C35 46.7466 35 41.5087 38.2544 38.2544C41.5087 35 46.7466 35 57.2222 35H62.7778C73.2534 35 78.4913 35 81.7456 38.2544C85 41.5087 85 46.7466 85 57.2222V62.7778C85 73.2534 85 78.4913 81.7456 81.7456C78.4913 85 73.2534 85 62.7778 85H57.2222C46.7466 85 41.5087 85 38.2544 81.7456C35 78.4913 35 73.2534 35 62.7778V57.2222Z" stroke="#3C3C3C" stroke-width="4"/>
<circle cx="72.4999" cy="47.5002" r="4.16667" fill="#0698A2"/>
<circle cx="60" cy="59.9998" r="9.11111" stroke="#3C3C3C" stroke-width="4"/>
</svg>
