<svg width="190" height="169" viewBox="0 0 190 169" fill="none" xmlns="http://www.w3.org/2000/svg">
<g id="Group 427322379">
<g id="Group 193">
<g id="&#236;&#149;&#132;&#235;&#166;&#172;" filter="url(#filter0_d_5433_15177)">
<g id="Group 191">
<g id="Group 117">
<g id="Group 190">
<g id="Group 124">
<g id="Ellipse 12">
<ellipse cx="21.6413" cy="17.343" rx="21.6413" ry="17.343" transform="matrix(-0.916963 0.398973 0.398973 0.916963 64.689 43.1499)" fill="#FFE070"/>
<ellipse cx="21.6413" cy="17.343" rx="21.6413" ry="17.343" transform="matrix(-0.916963 0.398973 0.398973 0.916963 64.689 43.1499)" fill="#FFE070"/>
</g>
</g>
<g id="Group 125">
<g id="Ellipse 12_2">
<ellipse cx="138.221" cy="67.6871" rx="21.6413" ry="17.343" transform="rotate(23.514 138.221 67.6871)" fill="#FFE070"/>
<ellipse cx="138.221" cy="67.6871" rx="21.6413" ry="17.343" transform="rotate(23.514 138.221 67.6871)" fill="#FFE070"/>
</g>
</g>
</g>
</g>
<circle id="Ellipse 11" cx="95.0008" cy="60.9012" r="50.9012" fill="#FFE070"/>
<g id="Group 192">
<ellipse id="Ellipse 19" cx="95.032" cy="62.9081" rx="8.12282" ry="5.70793" fill="#FF8A00"/>
<g id="Group 189">
<circle id="Ellipse 20" cx="81.0913" cy="50.7239" r="4.50048" fill="#2C2726"/>
<circle id="Ellipse 21" cx="108.973" cy="50.7236" r="4.50048" fill="#2C2726"/>
</g>
</g>
</g>
<g id="Group 180">
<g id="Group 188">
<g id="Group 135">
<g id="Group 132">
<g id="Group 130">
<g id="Group 129">
<g id="Group 127">
<path id="Union" d="M75.4629 118.043C74.3648 118.043 73.4371 117.228 73.2951 116.14L72.3892 109.195C72.3067 108.562 72.3743 107.919 72.5867 107.317L72.9045 106.416C73.2873 105.332 74.3126 104.606 75.4629 104.606C76.6131 104.606 77.6384 105.332 78.0212 106.416L78.339 107.317C78.5514 107.919 78.619 108.562 78.5365 109.195L77.6306 116.14C77.4886 117.228 76.5609 118.043 75.4629 118.043Z" fill="#E28200"/>
<g id="Group 126">
<path id="Union_2" d="M81.1124 115.164C80.1614 115.713 78.9507 115.472 78.2833 114.6L74.0263 109.038C73.6385 108.531 73.3755 107.94 73.2585 107.313L73.0835 106.374C72.8727 105.244 73.3979 104.103 74.3941 103.528C75.3903 102.953 76.6408 103.068 77.5147 103.816L78.2402 104.437C78.7249 104.852 79.1051 105.375 79.35 105.964L82.038 112.432C82.4595 113.446 82.0633 114.615 81.1124 115.164Z" fill="#E28200"/>
<path id="Union_3" d="M69.7021 115.164C70.653 115.713 71.8637 115.472 72.5311 114.6L76.7882 109.038C77.176 108.531 77.439 107.94 77.5559 107.313L77.7309 106.374C77.9417 105.244 77.4165 104.103 76.4204 103.528C75.4242 102.953 74.1736 103.068 73.2997 103.816L72.5743 104.437C72.0895 104.852 71.7093 105.375 71.4644 105.964L68.7764 112.432C68.355 113.446 68.7511 114.615 69.7021 115.164Z" fill="#E28200"/>
</g>
</g>
<g id="Group 128">
<path id="Union_4" d="M114.493 118.043C113.395 118.043 112.467 117.228 112.325 116.14L111.419 109.195C111.336 108.562 111.404 107.919 111.616 107.317L111.934 106.416C112.317 105.332 113.342 104.606 114.493 104.606C115.643 104.606 116.668 105.332 117.051 106.416L117.369 107.317C117.581 107.919 117.649 108.562 117.566 109.195L116.66 116.14C116.518 117.228 115.591 118.043 114.493 118.043Z" fill="#E28200"/>
<g id="Group 126_2">
<path id="Union_5" d="M120.143 115.164C119.192 115.713 117.981 115.472 117.314 114.6L113.057 109.038C112.669 108.531 112.406 107.94 112.289 107.313L112.114 106.374C111.903 105.244 112.428 104.103 113.424 103.528C114.421 102.953 115.671 103.068 116.545 103.816L117.27 104.437C117.755 104.852 118.135 105.375 118.38 105.964L121.068 112.432C121.49 113.446 121.094 114.615 120.143 115.164Z" fill="#E28200"/>
<path id="Union_6" d="M108.732 115.164C109.683 115.713 110.893 115.472 111.561 114.6L115.818 109.038C116.206 108.531 116.469 107.94 116.586 107.313L116.761 106.374C116.972 105.244 116.446 104.103 115.45 103.528C114.454 102.953 113.203 103.068 112.33 103.816L111.604 104.437C111.119 104.852 110.739 105.375 110.494 105.964L107.806 112.432C107.385 113.446 107.781 114.615 108.732 115.164Z" fill="#E28200"/>
</g>
</g>
</g>
</g>
</g>
</g>
</g>
</g>
</g>
</g>
<g id="Ellipse 66" opacity="0.6" filter="url(#filter1_f_5433_15177)">
<ellipse cx="83.032" cy="128.988" rx="35.1257" ry="6.58607" fill="#AEAEAE"/>
</g>
</g>
<defs>
<filter id="filter0_d_5433_15177" x="0.742188" y="0" width="188.501" height="168.043" filterUnits="userSpaceOnUse" color-interpolation-filters="sRGB">
<feFlood flood-opacity="0" result="BackgroundImageFix"/>
<feColorMatrix in="SourceAlpha" type="matrix" values="0 0 0 0 0 0 0 0 0 0 0 0 0 0 0 0 0 0 127 0" result="hardAlpha"/>
<feOffset dy="20"/>
<feGaussianBlur stdDeviation="15"/>
<feComposite in2="hardAlpha" operator="out"/>
<feColorMatrix type="matrix" values="0 0 0 0 0 0 0 0 0 0 0 0 0 0 0 0 0 0 0.16 0"/>
<feBlend mode="normal" in2="BackgroundImageFix" result="effect1_dropShadow_5433_15177"/>
<feBlend mode="normal" in="SourceGraphic" in2="effect1_dropShadow_5433_15177" result="shape"/>
</filter>
<filter id="filter1_f_5433_15177" x="27.9062" y="102.402" width="110.251" height="53.1724" filterUnits="userSpaceOnUse" color-interpolation-filters="sRGB">
<feFlood flood-opacity="0" result="BackgroundImageFix"/>
<feBlend mode="normal" in="SourceGraphic" in2="BackgroundImageFix" result="shape"/>
<feGaussianBlur stdDeviation="10" result="effect1_foregroundBlur_5433_15177"/>
</filter>
</defs>
</svg>
