<svg width="137" height="74" viewBox="0 0 137 74" fill="none" xmlns="http://www.w3.org/2000/svg">
<path d="M106.487 60.7766C123.063 60.7766 136.5 47.1713 136.5 30.3883C136.5 13.6053 123.063 0 106.487 0H41.3126C40.6305 0 39.9538 0.0230359 39.2831 0.0683813C38.5421 0.0230129 37.7952 0 37.0429 0C16.8608 0 0.5 16.5655 0.5 37C0.5 57.4345 16.8608 74 37.0429 74C38.4112 74 39.7619 73.9239 41.0912 73.7755C41.5608 66.5169 47.5244 60.7766 54.8121 60.7766C54.833 60.7766 54.854 60.7767 54.8749 60.7768V60.7766H106.487Z" fill="#00DCEA"/>
<path d="M47.1666 11.0103C46.1242 11.0103 45.2145 11.3362 44.4961 12.0231C43.761 12.7261 43.4201 13.6646 43.4201 14.7554V20.451C43.4201 21.5183 43.7657 22.4442 44.4819 23.1693C45.198 23.8945 46.1125 24.2444 47.1666 24.2444H54.928L54.9662 24.2401C55.6517 24.163 56.2628 23.9256 56.7649 23.502L56.7775 23.4913L56.7896 23.4801C57.3307 22.9778 57.5872 22.3146 57.5872 21.5612C57.5872 20.7962 57.3427 20.1151 56.7777 19.6313C56.2561 19.1529 55.6101 18.9263 54.8894 18.9263H49.7409C49.3512 18.9263 49.178 18.8173 49.0861 18.7102C48.978 18.5841 48.8632 18.3216 48.8632 17.7963V17.2171C48.8632 16.9201 48.9409 16.6978 49.0788 16.5159C49.1953 16.3932 49.4075 16.2802 49.8362 16.2802H54.6987C55.4074 16.2802 56.0491 16.0773 56.5742 15.6343L56.5868 15.6236L56.5989 15.6124C57.1401 15.1101 57.3965 14.4469 57.3965 13.6935C57.3965 12.9208 57.1483 12.2363 56.5989 11.7263C56.0753 11.2404 55.4249 11.0103 54.6987 11.0103H47.1666Z" fill="white"/>
<path d="M68.3957 20.2732L68.4064 20.2624L68.4166 20.2512C68.8894 19.7289 69.1238 19.0902 69.1238 18.3755C69.1238 17.7405 68.932 17.1578 68.5556 16.6497C68.08 16.0076 67.3037 15.7888 66.4737 15.7888H65.2342C64.9585 15.7888 64.8756 15.716 64.8507 15.6888C64.8165 15.6514 64.738 15.5286 64.738 15.1898V12.7764C64.738 12.5023 64.6626 12.1935 64.5624 11.8875C64.4283 11.4424 64.1728 11.0472 63.8325 10.6991C63.3862 10.2038 62.722 10.0449 62.0402 10.0449C61.2934 10.0449 60.6232 10.2683 60.0924 10.761C59.5354 11.278 59.2948 11.984 59.2948 12.7764V25.5675C59.2948 26.3412 59.5427 27.0272 60.0706 27.5617C60.5985 28.0963 61.276 28.3472 62.0402 28.3472C62.76 28.3472 63.3943 28.0836 63.9047 27.5716C64.465 27.0428 64.738 26.3543 64.738 25.5675V21.3681C64.738 21.1533 64.7928 21.1064 64.7995 21.1007L64.7999 21.1004C64.821 21.0815 64.9239 21.0105 65.2342 21.0105H66.4737C67.2186 21.0105 67.8878 20.7874 68.3957 20.2732Z" fill="white"/>
<path d="M57.7358 33.6398L57.7378 33.6422L57.7398 33.6447C57.9323 33.8785 58.0553 34.2065 58.0553 34.6901V38.3103C58.0553 39.0445 58.2828 39.7011 58.7834 40.208C59.3038 40.7348 59.9613 40.9935 60.7054 40.9935C61.4445 40.9935 62.0981 40.7383 62.6168 40.2187C63.1503 39.7177 63.4032 39.0584 63.4032 38.3103V31.8423C63.4032 30.7121 63.0755 29.7448 62.3035 29.0883C61.595 28.4543 60.7302 28.1455 59.752 28.1455H52.1245C51.3782 28.1455 50.7085 28.3685 50.1779 28.8603C49.6538 29.3432 49.4267 30.0003 49.4267 30.7322C49.4267 31.4827 49.6459 32.1618 50.1776 32.6519C50.7083 33.144 51.378 33.3671 52.1245 33.3671H56.9393C57.4095 33.3671 57.623 33.5001 57.7358 33.6398Z" fill="white"/>
<path d="M95.4513 11.0103C94.409 11.0103 93.4992 11.3362 92.7809 12.0231C92.0457 12.7261 91.7048 13.6646 91.7048 14.7554V20.451C91.7048 21.5183 92.0505 22.4442 92.7666 23.1693C93.4828 23.8945 94.3973 24.2444 95.4513 24.2444H103.213L103.251 24.2401C103.936 24.163 104.548 23.9256 105.05 23.502L105.062 23.4913L105.074 23.4801C105.616 22.9778 105.872 22.3146 105.872 21.5612C105.872 20.7962 105.627 20.1151 105.062 19.6313C104.541 19.1529 103.895 18.9263 103.174 18.9263H98.0256C97.636 18.9263 97.4628 18.8173 97.3709 18.7102C97.2627 18.5841 97.148 18.3216 97.148 17.7963V17.2171C97.148 16.9201 97.2257 16.6978 97.3635 16.5159C97.4801 16.3932 97.6922 16.2802 98.121 16.2802H102.984C103.692 16.2802 104.334 16.0773 104.859 15.6343L104.872 15.6236L104.884 15.6124C105.425 15.1101 105.681 14.4469 105.681 13.6935C105.681 12.9208 105.433 12.2363 104.884 11.7263C104.36 11.2404 103.71 11.0103 102.984 11.0103H95.4513Z" fill="white"/>
<path d="M116.68 20.2732L116.691 20.2624L116.701 20.2512C117.174 19.7289 117.409 19.0902 117.409 18.3755C117.409 17.7405 117.217 17.1578 116.84 16.6497C116.365 16.0076 115.588 15.7888 114.758 15.7888H113.519C113.243 15.7888 113.16 15.716 113.136 15.6888C113.101 15.6514 113.023 15.5286 113.023 15.1898V12.7764C113.023 12.5023 112.947 12.1935 112.847 11.8875C112.713 11.4424 112.458 11.0472 112.117 10.6991C111.671 10.2038 111.007 10.0449 110.325 10.0449C109.578 10.0449 108.908 10.2683 108.377 10.761C107.82 11.278 107.58 11.984 107.58 12.7764V25.5675C107.58 26.3412 107.827 27.0272 108.355 27.5617C108.883 28.0963 109.561 28.3472 110.325 28.3472C111.045 28.3472 111.679 28.0836 112.189 27.5716C112.75 27.0428 113.023 26.3543 113.023 25.5675V21.3681C113.023 21.1533 113.078 21.1064 113.084 21.1007L113.085 21.1004C113.106 21.0815 113.209 21.0105 113.519 21.0105H114.758C115.503 21.0105 116.173 20.7874 116.68 20.2732Z" fill="white"/>
<path d="M106.021 33.6398L106.023 33.6422L106.025 33.6447C106.217 33.8785 106.34 34.2065 106.34 34.6901V38.3103C106.34 39.0445 106.568 39.7011 107.068 40.208C107.589 40.7348 108.246 40.9935 108.99 40.9935C109.729 40.9935 110.383 40.7383 110.902 40.2187C111.435 39.7177 111.688 39.0584 111.688 38.3103V31.8423C111.688 30.7121 111.36 29.7448 110.588 29.0883C109.88 28.4543 109.015 28.1455 108.037 28.1455H100.409C99.663 28.1455 98.9933 28.3685 98.4627 28.8603C97.9386 29.3432 97.7115 30.0003 97.7115 30.7322C97.7115 31.4827 97.9306 32.1618 98.4624 32.6519C98.993 33.144 99.6628 33.3671 100.409 33.3671H105.224C105.694 33.3671 105.908 33.5001 106.021 33.6398Z" fill="white"/>
<path fill-rule="evenodd" clip-rule="evenodd" d="M85.7389 33.7294L85.738 33.7285L85.737 33.7277C85.0374 33.1026 84.1264 32.8275 83.0839 32.8275H83.0042C83.0449 32.6194 83.0644 32.403 83.0644 32.1802V31.2148C83.0644 30.839 83.1492 30.6886 83.1966 30.6351C83.231 30.5962 83.3232 30.5193 83.6083 30.5193H86.993C87.7855 30.5193 88.5028 30.2875 88.9942 29.6999C89.4345 29.2089 89.6908 28.6307 89.6908 27.9808C89.6908 27.2514 89.429 26.613 88.9042 26.1205C88.3977 25.614 87.7326 25.3942 86.993 25.3942H73.7879C73.0618 25.3942 72.4114 25.6242 71.8878 26.1102L71.8766 26.1206L71.8659 26.1314C71.3732 26.6303 71.1378 27.2661 71.1378 27.9808C71.1378 28.6153 71.3666 29.1896 71.7758 29.6867C72.2674 30.284 72.9895 30.5193 73.7879 30.5193H77.1249C77.4171 30.5193 77.5122 30.5965 77.5449 30.6321C77.5866 30.6776 77.6689 30.8122 77.6689 31.1665V32.1802C77.6689 32.403 77.6884 32.6194 77.729 32.8275H76.5529C75.8443 32.8275 75.2026 33.0303 74.6775 33.4734L74.6649 33.484L74.6527 33.4952C74.1116 33.9975 73.8551 34.6607 73.8551 35.4141C73.8551 36.1791 74.0996 36.8603 74.6647 37.344C75.1862 37.8225 75.8322 38.0491 76.5529 38.0491H80.605C80.916 38.0491 81.1153 38.0824 81.2312 38.1216C81.2672 38.1337 81.289 38.1441 81.3008 38.1508L81.3134 38.1699C81.4435 38.3675 81.4826 38.5235 81.4826 38.6481V39.0343C81.4826 39.0983 81.4641 39.1817 81.3641 39.3L81.3493 39.3174L81.337 39.334C81.3309 39.3396 81.3064 39.3585 81.2431 39.3798C81.1464 39.4124 80.9882 39.4402 80.748 39.4402H77.6493C76.5953 39.4402 75.6647 39.7891 74.8958 40.4898C74.1013 41.2138 73.7121 42.1665 73.7121 43.2819V47.7225C73.7121 48.8018 74.0821 49.7319 74.8351 50.4541C75.5672 51.1563 76.4531 51.5159 77.4586 51.5159H84.5141C85.253 51.5159 85.9041 51.2599 86.3989 50.7197C86.9041 50.203 87.1642 49.5611 87.1642 48.8327C87.1642 48.06 86.916 47.3755 86.3666 46.8655L86.3655 46.8645L86.3644 46.8636C85.861 46.4002 85.2208 46.1977 84.5141 46.1977H79.9853C79.6742 46.1977 79.475 46.1644 79.359 46.1253C79.3329 46.1164 79.3142 46.1085 79.3014 46.1023C79.2359 45.928 79.203 45.7455 79.203 45.5505V45.1643C79.203 45.0128 79.2301 44.872 79.285 44.7369C79.2945 44.7327 79.3071 44.7277 79.3233 44.7222C79.4169 44.6906 79.5814 44.6618 79.8422 44.6618H83.0839C84.0742 44.6618 84.9527 44.3293 85.6853 43.6688C86.4616 43.0027 86.8305 42.0886 86.8305 41.0132V36.5243C86.8305 35.3872 86.4996 34.4139 85.7389 33.7294ZM79.26 44.7503C79.26 44.7503 79.2605 44.7498 79.2616 44.7491C79.2606 44.7499 79.26 44.7503 79.26 44.7503ZM79.2775 46.0883C79.2775 46.0883 79.2784 46.0889 79.2797 46.09C79.2781 46.0889 79.2775 46.0883 79.2775 46.0883ZM81.3125 38.1584L81.3128 38.1585C81.3128 38.1585 81.3125 38.1582 81.3118 38.1577L81.3106 38.1568L81.3115 38.1576L81.3119 38.1579L81.3125 38.1584ZM81.3386 39.3323C81.3386 39.3323 81.3382 39.3329 81.3373 39.3337C81.3381 39.3327 81.3386 39.3323 81.3386 39.3323Z" fill="white"/>
<path d="M82.5053 22.0161C82.1715 21.6167 81.8062 21.2156 81.409 20.813C80.9784 20.4081 80.6954 20.2965 80.5472 20.284C80.4729 20.2777 80.2198 20.322 79.7464 20.7712C79.214 21.2786 78.6814 21.8019 78.1486 22.3412C77.6399 22.8884 77.1923 23.3577 76.8063 23.7485L76.79 23.7651L76.7725 23.7806C76.1265 24.3529 75.3662 24.606 74.5428 24.4207C73.8807 24.2717 73.3016 24.0004 72.8433 23.5786L72.8113 23.5491L72.7831 23.5158C72.2952 22.9394 72.0492 22.2648 72.0925 21.5198L72.0937 21.4993L72.096 21.4789C72.1799 20.7573 72.5046 20.1509 73.0665 19.7086C73.2613 19.5448 73.4581 19.3946 73.657 19.2587C73.8495 19.0975 74.0552 18.9377 74.2737 18.7792C74.8943 18.276 75.4994 17.7574 76.0891 17.2232C76.6245 16.7381 77.0456 16.1697 77.3556 15.5134L77.3608 15.5024L77.3664 15.4915C77.6723 14.8978 77.8222 14.1216 77.7664 13.1239C77.6854 12.3366 77.9371 11.6381 78.5124 11.1005C79.0483 10.5996 79.6915 10.3345 80.4143 10.3345C81.1578 10.3345 81.8198 10.592 82.3639 11.1005C82.939 11.638 83.1908 12.3363 83.11 13.1234C83.0524 14.1749 83.1776 14.9611 83.4311 15.5259C83.7076 16.1418 84.0921 16.671 84.588 17.119C85.1635 17.6094 85.7848 18.1011 86.4523 18.5941C86.6644 18.7056 86.8627 18.8354 87.0462 18.984C87.1875 19.0985 87.3459 19.2153 87.5219 19.3341L87.5415 19.3473L87.5601 19.3619C88.1778 19.8429 88.4474 20.5489 88.4513 21.3505C88.4866 22.1418 88.2675 22.8535 87.7331 23.4005C87.2201 23.958 86.5554 24.2509 85.7901 24.2917L85.7719 24.2927H85.7536C85.0006 24.2927 84.3483 24.0102 83.8603 23.4397C83.3548 22.9275 82.9095 22.4604 82.5252 22.0388L82.515 22.0277L82.5053 22.0161Z" fill="white"/>
<path fill-rule="evenodd" clip-rule="evenodd" d="M37.4541 33.7294L37.4532 33.7285L37.4522 33.7277C36.7526 33.1026 35.8416 32.8275 34.7991 32.8275H34.7194C34.7601 32.6194 34.7796 32.403 34.7796 32.1802V31.2148C34.7796 30.839 34.8644 30.6886 34.9118 30.6351C34.9462 30.5962 35.0384 30.5193 35.3235 30.5193H38.7082C39.5007 30.5193 40.218 30.2875 40.7094 29.6999C41.1497 29.2089 41.406 28.6307 41.406 27.9808C41.406 27.2514 41.1442 26.613 40.6194 26.1205C40.1128 25.614 39.4478 25.3942 38.7082 25.3942H25.5031C24.7769 25.3942 24.1266 25.6242 23.603 26.1102L23.5918 26.1206L23.5811 26.1314C23.0884 26.6303 22.853 27.2661 22.853 27.9808C22.853 28.6153 23.0818 29.1896 23.491 29.6867C23.9826 30.284 24.7047 30.5193 25.5031 30.5193H28.8401C29.1323 30.5193 29.2274 30.5965 29.2601 30.6321C29.3018 30.6776 29.3841 30.8122 29.3841 31.1665V32.1802C29.3841 32.403 29.4036 32.6194 29.4442 32.8275H28.2681C27.5595 32.8275 26.9177 33.0303 26.3926 33.4734L26.38 33.484L26.3679 33.4952C25.8268 33.9975 25.5703 34.6607 25.5703 35.4141C25.5703 36.1791 25.8148 36.8603 26.3798 37.344C26.9014 37.8225 27.5474 38.0491 28.2681 38.0491H32.3202C32.6312 38.0491 32.8305 38.0824 32.9464 38.1216C32.9824 38.1337 33.0041 38.1441 33.016 38.1508L33.0286 38.1699C33.1587 38.3675 33.1978 38.5235 33.1978 38.6481V39.0343C33.1978 39.0983 33.1793 39.1817 33.0792 39.3L33.0645 39.3174L33.0522 39.334C33.0461 39.3396 33.0215 39.3585 32.9583 39.3798C32.8616 39.4124 32.7034 39.4402 32.4632 39.4402H29.3645C28.3105 39.4402 27.3799 39.7891 26.611 40.4898C25.8165 41.2138 25.4273 42.1665 25.4273 43.2819V47.7225C25.4273 48.8018 25.7973 49.7319 26.5503 50.4541C27.2823 51.1563 28.1683 51.5159 29.1738 51.5159H36.2293C36.9682 51.5159 37.6193 51.2599 38.1141 50.7197C38.6193 50.203 38.8794 49.5611 38.8794 48.8327C38.8794 48.06 38.6312 47.3755 38.0817 46.8655L38.0807 46.8645L38.0796 46.8636C37.5762 46.4002 36.936 46.1977 36.2293 46.1977H31.7004C31.3894 46.1977 31.1901 46.1644 31.0742 46.1253C31.048 46.1164 31.0294 46.1085 31.0166 46.1023C30.9511 45.928 30.9181 45.7455 30.9181 45.5505V45.1643C30.9181 45.0128 30.9453 44.872 31.0002 44.7369C31.0097 44.7327 31.0222 44.7277 31.0385 44.7222C31.1321 44.6906 31.2966 44.6618 31.5574 44.6618H34.7991C35.7894 44.6618 36.6679 44.3293 37.4004 43.6688C38.1768 43.0027 38.5456 42.0886 38.5456 41.0132V36.5243C38.5456 35.3872 38.2148 34.4139 37.4541 33.7294ZM30.9768 44.7491C30.9757 44.7498 30.9752 44.7503 30.9752 44.7503C30.9752 44.7503 30.9754 44.7501 30.9759 44.7498C30.9761 44.7496 30.9764 44.7494 30.9768 44.7491ZM30.9927 46.0883C30.9927 46.0883 30.9935 46.0889 30.9949 46.09C30.9933 46.0889 30.9927 46.0883 30.9927 46.0883ZM33.0257 38.1568C33.0271 38.158 33.0279 38.1585 33.0279 38.1585C33.0279 38.1585 33.0278 38.1583 33.0274 38.158C33.027 38.1577 33.0265 38.1573 33.0257 38.1568ZM33.0536 39.3326L33.0538 39.3323C33.0538 39.3323 33.0533 39.3327 33.0525 39.3337C33.053 39.3332 33.0534 39.3328 33.0536 39.3326Z" fill="white"/>
<path d="M34.2205 22.0161C33.8867 21.6167 33.5214 21.2156 33.1242 20.813C32.6936 20.4081 32.4105 20.2965 32.2624 20.284C32.1881 20.2777 31.9349 20.322 31.4616 20.7712C30.9292 21.2786 30.3966 21.8019 29.8638 22.3412C29.3551 22.8884 28.9075 23.3577 28.5215 23.7485L28.5051 23.7651L28.4877 23.7806C27.8417 24.3529 27.0814 24.606 26.258 24.4207C25.5959 24.2717 25.0168 24.0004 24.5585 23.5786L24.5265 23.5491L24.4983 23.5158C24.0103 22.9394 23.7644 22.2648 23.8077 21.5198L23.8089 21.4993L23.8112 21.4789C23.8951 20.7573 24.2198 20.1509 24.7817 19.7086C24.9765 19.5448 25.1733 19.3946 25.3722 19.2587C25.5647 19.0975 25.7704 18.9377 25.9889 18.7792C26.6095 18.276 27.2146 17.7574 27.8043 17.2232C28.3397 16.7381 28.7608 16.1697 29.0708 15.5134L29.076 15.5024L29.0816 15.4915C29.3875 14.8978 29.5374 14.1216 29.4816 13.1239C29.4006 12.3366 29.6523 11.6381 30.2276 11.1005C30.7635 10.5996 31.4067 10.3345 32.1295 10.3345C32.873 10.3345 33.535 10.592 34.0791 11.1005C34.6542 11.638 34.906 12.3363 34.8251 13.1234C34.7676 14.1749 34.8927 14.9611 35.1463 15.5259C35.4228 16.1418 35.8073 16.671 36.3032 17.119C36.8787 17.6094 37.5 18.1011 38.1675 18.5941C38.3795 18.7056 38.5779 18.8354 38.7613 18.984C38.9027 19.0985 39.061 19.2153 39.237 19.3341L39.2566 19.3473L39.2753 19.3619C39.893 19.8429 40.1626 20.5489 40.1665 21.3505C40.2018 22.1418 39.9827 22.8535 39.4483 23.4005C38.9353 23.958 38.2706 24.2509 37.5053 24.2917L37.487 24.2927H37.4687C36.7158 24.2927 36.0635 24.0102 35.5755 23.4397C35.07 22.9275 34.6247 22.4604 34.2404 22.0388L34.2302 22.0277L34.2205 22.0161Z" fill="white"/>
</svg>
