<svg width="226" height="226" viewBox="0 0 226 226" fill="none" xmlns="http://www.w3.org/2000/svg">
<g id="&#234;&#185;&#128;&#237;&#152;&#132;&#236;&#158;&#172;">
<g clip-path="url(#clip0_5058_17378)">
<rect width="226" height="226" rx="20" fill="#08BECA"/>
<circle id="Ellipse 11" cx="112.033" cy="172.833" r="126.931" fill="white"/>
<path id="Union" d="M127.357 166.784C119.044 159.803 106.917 159.803 98.6037 166.784L92.7544 171.697C88.2792 175.455 88.5529 182.426 93.3089 185.822L99.9899 190.592C107.761 196.141 118.199 196.141 125.971 190.592L132.652 185.822C137.408 182.426 137.681 175.455 133.206 171.697L127.357 166.784Z" fill="#FF9403"/>
<g id="Group 427322287">
<g id="Group 427322285">
<g id="Union_2">
<path d="M31.389 123.254H118.441V134.135H96.6779V145.017H85.7964V155.898H53.1519V145.017H42.2705V134.135H31.389V123.254Z" fill="#2C2726"/>
<path fill-rule="evenodd" clip-rule="evenodd" d="M29.2964 121.161H120.533V136.228H98.7705V147.109H87.889V157.991H51.0593V147.109H40.1779V136.228H29.2964V121.161ZM96.6779 145.017H85.7964V155.898H53.1519V145.017H42.2705V134.135H31.389V123.254H118.441V134.135H96.6779V145.017Z" fill="#2C2726"/>
</g>
<g id="Group 427322283">
<rect id="Rectangle 24" x="65.2891" y="146.272" width="8.37037" height="8.37037" fill="white"/>
<rect id="Rectangle 23" x="54.4077" y="135.391" width="8.37037" height="8.37037" fill="white"/>
</g>
</g>
<g id="Group 427322286">
<path id="Union_3" fill-rule="evenodd" clip-rule="evenodd" d="M196.704 121.161H116.348V136.228H127.23V147.109H138.111V157.991H174.941V147.109H185.822V136.228H196.704V121.161ZM129.322 134.135V145.017H129.322V134.135H129.322ZM140.204 145.017V155.898L140.204 145.017H140.204ZM118.441 134.135V123.254L194.611 123.254H118.441V134.135H118.441Z" fill="#2C2726"/>
<g id="Group 427322283_2">
<rect id="Rectangle 24_2" x="152.341" y="146.272" width="8.37037" height="8.37037" fill="white"/>
<rect id="Rectangle 23_2" x="141.459" y="135.391" width="8.37037" height="8.37037" fill="white"/>
</g>
</g>
</g>
</g>
<rect x="0.5" y="0.5" width="225" height="225" rx="19.5" stroke="#08BECA"/>
</g>
<defs>
<clipPath id="clip0_5058_17378">
<rect width="226" height="226" rx="20" fill="white"/>
</clipPath>
</defs>
</svg>
