<svg width="226" height="226" viewBox="0 0 226 226" fill="none" xmlns="http://www.w3.org/2000/svg">
<g clip-path="url(#clip0_5053_14271)">
<rect width="226" height="226" rx="20" fill="#08BECA"/>
<circle cx="112.033" cy="172.833" r="126.931" fill="white"/>
<ellipse cx="148.689" cy="140.789" rx="18.9257" ry="20.6681" fill="#2C2726"/>
<ellipse cx="77.309" cy="140.789" rx="18.9257" ry="20.6681" fill="#2C2726"/>
<path fill-rule="evenodd" clip-rule="evenodd" d="M93.179 138.93C105.67 125.38 123.968 129.171 132.655 138.964C133.533 139.954 133.442 141.467 132.453 142.345C131.464 143.223 129.95 143.132 129.072 142.143C121.911 134.07 106.926 131.085 96.7007 142.177C95.8043 143.149 94.2891 143.211 93.3166 142.315C92.3441 141.418 92.2825 139.903 93.179 138.93Z" fill="#2C2726"/>
<path fill-rule="evenodd" clip-rule="evenodd" d="M88.0975 105.909C80.6317 102.349 71.9141 102.572 64.6405 106.51C62.0997 107.885 58.9249 106.941 57.5494 104.4C56.1739 101.859 57.1186 98.6841 59.6594 97.3086C69.8739 91.779 82.1163 91.4652 92.6007 96.4644L94.1164 97.1871C96.7244 98.4306 97.8305 101.553 96.5869 104.161C95.3434 106.769 92.2211 107.875 89.6132 106.631L88.0975 105.909Z" fill="#2C2726"/>
<path fill-rule="evenodd" clip-rule="evenodd" d="M159.873 105.909C152.408 102.349 143.69 102.572 136.416 106.51C133.876 107.885 130.701 106.941 129.325 104.4C127.95 101.859 128.894 98.6841 131.435 97.3086C141.65 91.779 153.892 91.4652 164.377 96.4644L165.892 97.1871C168.5 98.4306 169.606 101.553 168.363 104.161C167.119 106.769 163.997 107.875 161.389 106.631L159.873 105.909Z" fill="#2C2726"/>
<path d="M132.271 166.795C121.128 159.799 104.873 159.799 93.7296 166.795L85.8891 171.717C79.8906 175.483 80.2574 182.468 86.6323 185.87L95.5877 190.65C106.005 196.211 119.996 196.211 130.413 190.65L139.368 185.87C145.743 182.468 146.11 175.483 140.111 171.717L132.271 166.795Z" fill="#FF9403"/>
<mask id="mask0_5053_14271" style="mask-type:alpha" maskUnits="userSpaceOnUse" x="81" y="161" width="64" height="34">
<path d="M132.271 166.795C121.128 159.799 104.873 159.799 93.7296 166.795L85.8891 171.717C79.8906 175.483 80.2574 182.468 86.6323 185.87L95.5877 190.65C106.005 196.211 119.996 196.211 130.413 190.65L139.368 185.87C145.743 182.468 146.11 175.483 140.111 171.717L132.271 166.795Z" fill="#FF9403"/>
</mask>
<g mask="url(#mask0_5053_14271)">
<g style="mix-blend-mode:multiply">
<rect x="49.8037" y="178.499" width="110.489" height="16.3222" fill="#E4C9A4"/>
</g>
</g>
</g>
<rect x="0.5" y="0.5" width="225" height="225" rx="19.5" stroke="#08BECA"/>
<defs>
<clipPath id="clip0_5053_14271">
<rect width="226" height="226" rx="20" fill="white"/>
</clipPath>
</defs>
</svg>
