<svg width="120" height="120" viewBox="0 0 120 120" fill="none" xmlns="http://www.w3.org/2000/svg">
<circle cx="60" cy="60" r="60" fill="#EDF7F9"/>
<path d="M82.8934 40.2921L81.256 41.4406L81.256 41.4406L82.8934 40.2921ZM82.8934 71.3846L84.5307 72.5331L82.8934 71.3846ZM79.4446 74.6699L80.5186 76.3571L79.4446 74.6699ZM66.25 76.6727L66.2417 74.6727C65.1404 74.6773 64.25 75.5714 64.25 76.6727H66.25ZM66.25 76.6768L68.0209 77.6063C68.1714 77.3196 68.25 77.0006 68.25 76.6768H66.25ZM62.7553 83.335L64.5262 84.2645L62.7553 83.335ZM57.2447 83.335L55.4738 84.2645L57.2447 83.335ZM53.75 76.6768H51.75C51.75 77.0006 51.8286 77.3196 51.9791 77.6063L53.75 76.6768ZM53.75 76.6727H55.75C55.75 75.5714 54.8596 74.6773 53.7583 74.6727L53.75 76.6727ZM40.5554 74.6699L41.6293 72.9827L40.5554 74.6699ZM37.1066 71.3846L35.4693 72.5331H35.4693L37.1066 71.3846ZM37.1066 40.2921L35.4693 39.1436L35.4693 39.1436L37.1066 40.2921ZM40.5554 37.0068L39.4814 35.3196L39.4814 35.3196L40.5554 37.0068ZM79.4446 37.0068L80.5186 35.3196V35.3196L79.4446 37.0068ZM87 55.8384C87 51.7011 87.0027 48.4401 86.7254 45.8434C86.4439 43.2081 85.8565 41.0337 84.5307 39.1436L81.256 41.4406C82.0369 42.5539 82.5027 43.9716 82.748 46.2682C82.9973 48.6033 83 51.6137 83 55.8384H87ZM84.5307 72.5331C85.8565 70.643 86.4439 68.4686 86.7254 65.8333C87.0027 63.2366 87 59.9757 87 55.8384H83C83 60.063 82.9973 63.0735 82.748 65.4086C82.5027 67.7051 82.0369 69.1229 81.256 70.2361L84.5307 72.5331ZM80.5186 76.3571C82.1005 75.3502 83.4652 74.0522 84.5307 72.5331L81.256 70.2361C80.4975 71.3175 79.5185 72.2521 78.3707 72.9827L80.5186 76.3571ZM66.2583 78.6727C69.6206 78.6587 72.3501 78.5979 74.6041 78.3011C76.8866 78.0005 78.8113 77.4438 80.5186 76.3571L78.3707 72.9827C77.3237 73.6492 76.0225 74.0798 74.0819 74.3353C72.1129 74.5946 69.6222 74.6586 66.2417 74.6727L66.2583 78.6727ZM68.25 76.6768V76.6727H64.25V76.6768H68.25ZM64.5262 84.2645L68.0209 77.6063L64.4791 75.7473L60.9844 82.4055L64.5262 84.2645ZM55.4738 84.2645C57.3886 87.9126 62.6114 87.9126 64.5262 84.2645L60.9844 82.4055C60.568 83.1989 59.432 83.1989 59.0156 82.4055L55.4738 84.2645ZM51.9791 77.6063L55.4738 84.2645L59.0156 82.4055L55.5209 75.7473L51.9791 77.6063ZM51.75 76.6727V76.6768H55.75V76.6727H51.75ZM39.4814 76.3571C41.1887 77.4438 43.1134 78.0005 45.3959 78.3011C47.6499 78.5979 50.3794 78.6587 53.7417 78.6727L53.7583 74.6727C50.3778 74.6586 47.8871 74.5946 45.9181 74.3353C43.9775 74.0798 42.6763 73.6492 41.6293 72.9827L39.4814 76.3571ZM35.4693 72.5331C36.5348 74.0522 37.8995 75.3502 39.4814 76.3571L41.6293 72.9827C40.4815 72.2521 39.5025 71.3175 38.744 70.2361L35.4693 72.5331ZM33 55.8384C33 59.9757 32.9973 63.2366 33.2746 65.8333C33.5561 68.4686 34.1435 70.643 35.4693 72.5331L38.744 70.2361C37.9631 69.1229 37.4973 67.7051 37.252 65.4086C37.0027 63.0735 37 60.063 37 55.8384H33ZM35.4693 39.1436C34.1435 41.0337 33.5561 43.2081 33.2746 45.8434C32.9973 48.4401 33 51.7011 33 55.8384H37C37 51.6137 37.0027 48.6033 37.252 46.2682C37.4973 43.9716 37.9631 42.5539 38.744 41.4406L35.4693 39.1436ZM39.4814 35.3196C37.8995 36.3265 36.5348 37.6245 35.4693 39.1436L38.744 41.4406C39.5025 40.3593 40.4815 39.4246 41.6293 38.694L39.4814 35.3196ZM56.875 33C52.5257 33 49.1203 32.9978 46.4129 33.2602C43.6766 33.5253 41.4353 34.0759 39.4814 35.3196L41.6293 38.694C42.8282 37.9309 44.3578 37.4781 46.7987 37.2415C49.2684 37.0022 52.4464 37 56.875 37V33ZM63.125 33H56.875V37H63.125V33ZM80.5186 35.3196C78.5647 34.0759 76.3234 33.5253 73.5871 33.2602C70.8797 32.9978 67.4743 33 63.125 33V37C67.5536 37 70.7316 37.0022 73.2013 37.2415C75.6422 37.4781 77.1718 37.9309 78.3707 38.694L80.5186 35.3196ZM84.5307 39.1436C83.4652 37.6245 82.1005 36.3265 80.5186 35.3196L78.3707 38.694C79.5185 39.4246 80.4975 40.3593 81.256 41.4406L84.5307 39.1436Z" fill="#3C3C3C"/>
<circle cx="72.2917" cy="56.2881" r="3.125" fill="#0698A2"/>
<circle cx="59.7917" cy="56.2881" r="3.125" fill="#0698A2"/>
<circle cx="47.2915" cy="56.2881" r="3.125" fill="#0698A2"/>
</svg>
